<?xml version="1.0" encoding="UTF-8"?>
<svg version="1.1" xmlns="http://www.w3.org/2000/svg" width="512" height="512">
<path d="M0 0 C1.01154144 0.35300171 2.02308289 0.70600342 3.0652771 1.06970215 C6.3915615 2.23384644 9.71129227 3.41560257 13.03125 4.59765625 C15.37609421 5.42235992 17.72131515 6.24599312 20.06689453 7.06860352 C26.07807953 9.18028638 32.08389798 11.30678471 38.0880127 13.43847656 C42.32278636 14.94099774 46.55974934 16.43726842 50.79693604 17.93296814 C59.62593824 21.04964891 68.45080001 24.17785325 77.2734375 27.3125 C89.206858 31.55142392 101.15249181 35.75533286 113.10003662 39.95425415 C133.46410127 47.11121748 153.82720716 54.2710993 174.16552734 61.50097656 C176.10253287 62.18947054 178.03954456 62.8779472 179.9765625 63.56640625 C180.92562469 63.90379822 181.87468689 64.24119019 182.85250854 64.58880615 C188.77204156 66.69010245 194.699285 68.76798425 200.63269043 70.82977295 C204.54698568 72.19149772 208.4578553 73.56289195 212.36828613 74.93566895 C214.20383488 75.57725508 216.04096418 76.21433995 217.87976074 76.84655762 C220.40584689 77.71550316 222.92594309 78.60008331 225.4453125 79.48828125 C226.18047089 79.73654663 226.91562927 79.98481201 227.67306519 80.24060059 C233.10221786 82.18146401 237.54456572 84.75477404 240.8828125 89.63671875 C242.66663085 95.20309167 242.36908373 100.98448879 239.78125 106.16015625 C236.30131958 110.02674561 233.12626672 112.00173689 228.22680664 113.71875 C227.15479507 114.09840408 226.08278351 114.47805817 224.97828674 114.86921692 C223.81111618 115.2746019 222.64394562 115.67998688 221.44140625 116.09765625 C219.56095448 116.76068223 217.68050337 117.42371007 215.80007839 118.08681202 C213.78959241 118.79427569 211.77792394 119.49827472 209.76586914 120.20126343 C205.54782445 121.67512294 201.33314797 123.15844096 197.11914062 124.64379883 C195.68753318 125.14833824 194.25592306 125.65287008 192.8243103 126.15739441 C192.11278179 126.40816427 191.40125328 126.65893414 190.6681633 126.91730309 C188.49375274 127.68326419 186.3190162 128.44829312 184.14419556 129.21308899 C171.99159802 133.48800561 159.86318184 137.82863513 147.74206543 142.1920166 C127.66664558 149.41758022 107.5575856 156.54320465 87.42575073 163.60995483 C73.17802187 168.61135711 58.93894194 173.63506022 44.72097778 178.72052002 C42.13776346 179.6444147 39.55415213 180.56719143 36.97045898 181.48974609 C29.83437163 184.0391732 22.70077412 186.59477775 15.57804871 189.18133545 C12.69331925 190.22779093 9.80642677 191.26818891 6.91915894 192.30761719 C5.60287373 192.7833709 4.28765633 193.26209213 2.97366333 193.74414062 C-9.67035292 198.38236341 -16.47099159 199.23939837 -29.34375 194.66015625 C-30.65379762 194.20728547 -31.96427797 193.7556649 -33.27514648 193.30517578 C-37.68220931 191.78255617 -42.07545297 190.22195623 -46.46875 188.66015625 C-48.06291732 188.09582816 -49.65715688 187.53170407 -51.25146484 186.96777344 C-60.88424802 183.55704986 -70.50461031 180.11222303 -80.12107849 176.6558075 C-90.33251496 172.98715937 -100.55665804 169.35444197 -110.78125 165.72265625 C-112.66676275 165.05261298 -114.55226076 164.38252824 -116.43774414 163.71240234 C-120.22358339 162.36688561 -124.00947539 161.02151749 -127.79541016 159.67626953 C-133.44066468 157.67025714 -139.08561467 155.66338891 -144.73046875 153.65625 C-146.12195381 153.16148415 -146.12195381 153.16148415 -147.54154968 152.65672302 C-152.22100821 150.99283255 -156.90043174 149.32884368 -161.57983398 147.66479492 C-171.98478779 143.96480708 -182.39035623 140.26656051 -192.79716492 136.5717926 C-197.50908894 134.89856133 -202.22029162 133.22335144 -206.92993164 131.54370117 C-208.77488622 130.88585973 -210.61985686 130.22806331 -212.46484375 129.5703125 C-213.37144241 129.24707504 -214.27804108 128.92383759 -215.21211243 128.59080505 C-220.78735206 126.60598267 -226.36963612 124.6425225 -231.95788574 122.69464111 C-235.58369351 121.42913052 -239.20605461 120.15393984 -242.82794189 118.8772583 C-244.52566714 118.28160965 -246.2249803 117.69046471 -247.92596436 117.10418701 C-250.26609339 116.29720356 -252.60018817 115.47462482 -254.93359375 114.6484375 C-255.61269302 114.41885849 -256.2917923 114.18927948 -256.99147034 113.95274353 C-262.28340338 112.05079364 -266.60018706 109.39279454 -269.8203125 104.68359375 C-271.60413085 99.11722083 -271.30658373 93.33582371 -268.71875 88.16015625 C-265.35439944 84.42198896 -262.28779833 82.39571775 -257.54394531 80.75341797 C-256.55607529 80.4074205 -255.56820526 80.06142303 -254.55039978 79.7049408 C-253.4767366 79.33695877 -252.40307343 78.96897675 -251.296875 78.58984375 C-250.16846695 78.19660416 -249.0400589 77.80336456 -247.87745667 77.39820862 C-244.8019617 76.32758856 -241.72440944 75.26314804 -238.64593887 74.20112228 C-235.40095818 73.07977556 -232.15890087 71.95004829 -228.91674805 70.82055664 C-224.94266265 69.43641447 -220.96847922 68.05256802 -216.99320984 66.67182922 C-206.03371742 62.86450531 -195.09325212 59.00482554 -184.1607666 55.1206665 C-179.29154249 53.39076983 -174.42124406 51.66390562 -169.55078125 49.9375 C-168.57527313 49.59170898 -167.59976501 49.24591797 -166.59469604 48.88964844 C-154.5598713 44.62616443 -142.51399511 40.39408869 -130.46875 36.16015625 C-114.11386636 30.41127033 -97.76442497 24.64752873 -81.42504883 18.85470581 C-78.44336341 17.7983054 -75.46104623 16.74370885 -72.47851562 15.68969727 C-64.04698755 12.70883394 -55.61845837 9.72148218 -47.20936584 6.67779541 C-43.7695371 5.43412863 -40.32644663 4.1996618 -36.88284302 2.9664917 C-35.29806076 2.39612635 -33.7148843 1.82127528 -32.1335144 1.24151611 C-29.97836774 0.4516161 -27.81818143 -0.32265133 -25.65625 -1.09375 C-24.45355469 -1.53017822 -23.25085938 -1.96660645 -22.01171875 -2.41625977 C-13.76057638 -4.56717429 -7.80045155 -2.80819253 0 0 Z " fill="#000000" transform="translate(270.46875,45.33984375)"/>
<path d="M0 0 C8.31169321 2.11670998 16.35526806 4.77334647 24.4296875 7.65625 C25.72721487 8.11634905 27.02486121 8.5761127 28.32261658 9.03556824 C31.79057766 10.26453349 35.256735 11.49851125 38.72253799 12.73354721 C41.61212601 13.76247724 44.50281848 14.7882839 47.39352894 15.81405544 C69.07973623 23.50973203 90.74677356 31.25947977 112.39599609 39.05859375 C141.41204128 49.50553794 157.32511666 50.61524399 186.625 40.25 C188.53609278 39.57826777 190.44730948 38.90688797 192.35864258 38.23583984 C208.58693767 32.5302174 224.78467753 26.73849463 240.98046875 20.94140625 C252.3936218 16.85664939 263.81045371 12.78230461 275.23306274 8.72406006 C277.40224082 7.95280845 279.57100704 7.18039748 281.73934937 6.40679932 C284.75227537 5.33204746 287.7665739 4.26123747 290.78125 3.19140625 C292.14054375 2.70509987 292.14054375 2.70509987 293.52729797 2.20896912 C294.76772102 1.77017174 294.76772102 1.77017174 296.03320312 1.32250977 C297.11559265 0.93736961 297.11559265 0.93736961 298.21984863 0.54444885 C300 0 300 0 302 0 C302.11628881 9.21482035 302.20491397 18.42938479 302.25906086 27.64478111 C302.28506007 31.92474826 302.32027849 36.20421023 302.37719727 40.48388672 C302.43186608 44.62068206 302.46149316 48.75699414 302.47438622 52.89412308 C302.48356406 54.46569034 302.50148539 56.03723371 302.52865028 57.60859299 C302.70515378 68.24996965 301.50494845 75.89189892 295.03515625 84.6640625 C288.77183223 90.89017866 281.78503029 95.00609431 274 99 C273.14019531 99.44988281 272.28039062 99.89976562 271.39453125 100.36328125 C247.92502424 111.81819167 220.76040362 116.97263454 195 120 C194.16194824 120.10296387 193.32389648 120.20592773 192.46044922 120.31201172 C135.15504216 127.07078248 61.19388143 124.11092846 12.4375 90 C6.5437642 85.27219889 2.3846575 79.16954756 0 72 C-0.36076355 68.42481995 -0.36076355 68.42481995 -0.34057617 64.59594727 C-0.34101425 63.892668 -0.34145233 63.18938873 -0.34190369 62.46479797 C-0.33983155 60.16504094 -0.31657679 57.86603421 -0.29296875 55.56640625 C-0.28736715 53.96215717 -0.28309972 52.35790292 -0.28010559 50.75364685 C-0.26870111 46.54991257 -0.23927236 42.34649373 -0.20599365 38.1428833 C-0.17519746 33.84594997 -0.16157993 29.54896522 -0.14648438 25.25195312 C-0.11439795 16.83449134 -0.0632555 8.41728501 0 0 Z " fill="#000000" transform="translate(105,222)"/>
<path d="M0 0 C-0.00222061 0.66868638 -0.00444122 1.33737276 -0.00672913 2.02632236 C-0.05805518 18.31047304 -0.06518132 34.59398563 -0.02334595 50.87815189 C-0.00417593 58.75317764 0.00013239 66.62768393 -0.03076172 74.50268555 C-0.057657 81.36804413 -0.05644756 88.23272976 -0.02174091 95.09806341 C-0.00434393 98.73220447 -0.0008504 102.3651405 -0.03103638 105.99922371 C-0.0642424 110.06037898 -0.03468643 114.11878851 0 118.17993164 C-0.01941147 119.37971146 -0.03882294 120.57949127 -0.05882263 121.81562805 C-0.02853295 127.95012469 -0.02853295 127.95012469 2.74658203 133.21795464 C4.82301804 135.08698491 4.82301804 135.08698491 7.00439453 136.56545162 C12.44591181 140.47710646 14.24804115 146.00129597 15.4375 152.375 C16.67928936 162.82773182 14.32148107 170.57632829 8 179 C6.077047 181.0181936 4.32361329 182.41571821 2 184 C1.34 184 0.68 184 0 184 C0.00888245 184.97639435 0.01776489 185.9527887 0.0269165 186.95877075 C0.108072 196.16914245 0.16799879 205.37944141 0.20724869 214.5900898 C0.22810605 219.32518565 0.25638979 224.0599924 0.30175781 228.79492188 C0.34528173 233.36609608 0.36915104 237.93699255 0.37950897 242.508358 C0.38688861 244.25066372 0.40129947 245.99295457 0.42292023 247.73514175 C0.4520419 250.1793911 0.45595245 252.62249907 0.45410156 255.06689453 C0.47567322 256.14259956 0.47567322 256.14259956 0.49768066 257.24003601 C0.45644997 262.28615148 -0.86724461 265.09627638 -4 269 C-8.03488765 272.54581036 -11.56661409 273.30360179 -16.94140625 273.21484375 C-21.34959672 272.75478592 -24.18150829 270.81849171 -27.25 267.75 C-30.71483971 262.30525189 -31.24632917 256.84933734 -31.20776367 250.50756836 C-31.20656525 249.79441971 -31.20536682 249.08127106 -31.20413208 248.34651184 C-31.20100125 246.81058876 -31.19373432 245.27466951 -31.1826992 243.73878288 C-31.16775016 241.30424536 -31.16947345 238.87025286 -31.17634583 236.4356842 C-31.19510815 229.51838741 -31.20153656 222.60152254 -31.15454102 215.68432617 C-31.12691756 211.44186599 -31.13329047 207.20060247 -31.16155434 202.95816231 C-31.16580568 201.34706492 -31.15737893 199.7358806 -31.1358242 198.1249218 C-30.70254188 189.53211089 -30.70254188 189.53211089 -33.54498291 181.74555969 C-35.29400851 180.25868966 -37.03446672 179.16906594 -39 178 C-44.86874907 169.54759845 -47.1074368 160.51766876 -45.4375 150.375 C-43.51294972 143.11892531 -38.62578719 136.84442786 -33 132 C-32.34 132 -31.68 132 -31 132 C-31 92.07 -31 52.14 -31 11 C-1.66666667 0 -1.66666667 0 0 0 Z " fill="#000000" transform="translate(476,197)"/>
</svg>
