<?xml version="1.0" encoding="UTF-8"?>
<svg version="1.1" xmlns="http://www.w3.org/2000/svg" width="512" height="512">
<path d="M0 0 C10.34559199 6.50992938 16.65951985 14.72401692 19.64453125 26.6640625 C19.64453125 33.5940625 19.64453125 40.5240625 19.64453125 47.6640625 C73.10453125 47.6640625 126.56453125 47.6640625 181.64453125 47.6640625 C181.64453125 40.7340625 181.64453125 33.8040625 181.64453125 26.6640625 C184.62204666 15.09756033 190.83746579 6.39070437 201.08984375 0.18359375 C211.48444686 -4.98475348 224.73654563 -5.34247645 235.76953125 -1.7734375 C245.14485949 2.3691494 252.61200745 9.06052937 256.8984375 18.39453125 C260.4063825 28.03832429 260.02844443 37.56501293 259.64453125 47.6640625 C261.19563599 47.64049683 261.19563599 47.64049683 262.77807617 47.61645508 C266.62646652 47.56202196 270.47482304 47.52766401 274.32348633 47.49926758 C275.98695606 47.48421136 277.6503863 47.46376187 279.3137207 47.43774414 C281.70924647 47.40122043 284.10424592 47.38430468 286.5 47.37109375 C287.23977585 47.35560989 287.9795517 47.34012604 288.741745 47.32417297 C293.23482593 47.32271927 296.2284239 47.65453432 299.64453125 50.6640625 C303.75799851 57.13089145 303.07773153 64.25044272 303.04296875 71.69921875 C303.04499295 73.06489721 303.04790726 74.43057461 303.05166626 75.79624939 C303.05607191 78.64820725 303.0497149 81.49988188 303.03564453 84.35180664 C303.01853693 87.99562351 303.02841427 91.63877811 303.04636192 95.28257084 C303.05723384 98.09912553 303.0537382 100.91552474 303.04597855 103.73208427 C303.04302313 105.72504485 303.05208442 107.71801163 303.06137085 109.71095276 C303.05191437 110.92919235 303.04245789 112.14743195 303.03271484 113.40258789 C303.03032806 114.46957413 303.02794128 115.53656036 303.02548218 116.63587952 C302.42615089 121.39997031 300.4577878 125.6452344 296.64453125 128.6640625 C293.64453125 129.6640625 293.64453125 129.6640625 282.64453125 129.6640625 C282.64453125 182.7940625 282.64453125 235.9240625 282.64453125 290.6640625 C285.94453125 290.6640625 289.24453125 290.6640625 292.64453125 290.6640625 C296.86920929 292.20030906 299.34101174 293.7844507 301.64453125 297.6640625 C302.72427786 300.90330234 302.78440131 303.28451773 302.80566406 306.69262695 C302.81527161 307.93434158 302.82487915 309.17605621 302.83477783 310.45539856 C302.83962631 311.81271175 302.84390502 313.17002708 302.84765625 314.52734375 C302.85341088 315.92115785 302.85916858 317.31497194 302.8649292 318.70878601 C302.87543087 321.63162606 302.88127877 324.55443867 302.88476562 327.47729492 C302.89024421 331.21308022 302.91426171 334.94849991 302.94273758 338.68417072 C302.96141111 341.56417379 302.96657208 344.44408969 302.9681015 347.32414818 C302.97111868 348.70079735 302.97911557 350.07744533 302.99228668 351.45403481 C303.00944153 353.38505399 303.00560854 355.31622462 303.00097656 357.24731445 C303.00462219 358.3441304 303.00826782 359.44094635 303.01202393 360.57099915 C302.48142575 365.03686716 300.99290051 368.44210286 297.64453125 371.4765625 C293.63373043 373.85797549 289.96209443 373.80331877 285.45027161 373.78431702 C284.34386756 373.78559865 284.34386756 373.78559865 283.21511191 373.78690618 C280.7368893 373.78855683 278.25873398 373.78304638 275.78051758 373.77758789 C274.00669862 373.7773059 272.23287955 373.77746398 270.45906067 373.7780304 C265.63706787 373.77831792 260.81509983 373.77242842 255.9931128 373.76545644 C250.95624049 373.75921545 245.91936765 373.75861851 240.88249207 373.75743103 C231.3415249 373.75431992 221.80056915 373.74610948 212.25960702 373.73608154 C201.39880247 373.72491358 190.53799738 373.71940823 179.67718852 373.71438611 C157.33296163 373.7039267 134.98875041 373.68558394 112.64453125 373.6640625 C112.64453125 387.8540625 112.64453125 402.0440625 112.64453125 416.6640625 C114.95453125 416.9940625 117.26453125 417.3240625 119.64453125 417.6640625 C131.63743311 423.4186538 140.58558254 432.92258559 145.6796875 445.1484375 C149.60634249 457.20235514 149.13419232 471.23007518 143.64453125 482.6640625 C141.835916 485.83155712 139.83806282 488.75341484 137.64453125 491.6640625 C137.06703125 492.5303125 136.48953125 493.3965625 135.89453125 494.2890625 C128.09869086 502.51800513 117.10652892 508.20888064 105.73828125 508.90234375 C92.05392265 509.23395903 81.77678747 507.05358892 70.64453125 498.6640625 C69.77828125 498.0865625 68.91203125 497.5090625 68.01953125 496.9140625 C59.87171557 489.19507923 54.14081337 478.27100976 53.40625 467.01171875 C52.98369553 450.83906224 56.82776449 438.79958543 68.08203125 426.8515625 C73.75513197 421.44618114 80.63779214 416.6640625 88.64453125 416.6640625 C88.64453125 402.4740625 88.64453125 388.2840625 88.64453125 373.6640625 C83.22321777 373.67977295 77.8019043 373.6954834 72.21630859 373.71166992 C54.3269393 373.76132505 36.43756734 373.79464792 18.5481472 373.81949902 C7.69921736 373.83497027 -3.14964721 373.85606477 -13.99853516 373.89038086 C-23.45402583 373.92027525 -32.90946923 373.93963562 -42.36500585 373.94632798 C-47.37200418 373.95024016 -52.37886729 373.95943979 -57.3858223 373.98125267 C-62.09878617 374.00161838 -66.81155913 374.0078961 -71.52456284 374.00338554 C-73.25393969 374.0042107 -74.98332295 374.01017585 -76.71266174 374.02167892 C-79.07549037 374.03662454 -81.43759998 374.03300884 -83.80044556 374.02482605 C-84.4833392 374.03356457 -85.16623285 374.0423031 -85.86982024 374.05130643 C-90.41088187 374.00885537 -93.48439664 373.01279084 -97.35546875 370.6640625 C-101.05560572 366.58115273 -101.48304519 363.01409518 -101.51660156 357.63549805 C-101.52620911 356.39378342 -101.53581665 355.15206879 -101.54571533 353.87272644 C-101.55056381 352.51541325 -101.55484252 351.15809792 -101.55859375 349.80078125 C-101.56434838 348.40696715 -101.57010608 347.01315306 -101.5758667 345.61933899 C-101.58636837 342.69649894 -101.59221627 339.77368633 -101.59570312 336.85083008 C-101.60118171 333.11504478 -101.62519921 329.37962509 -101.65367508 325.64395428 C-101.67234861 322.76395121 -101.67750958 319.88403531 -101.679039 317.00397682 C-101.68205618 315.62732765 -101.69005307 314.25067967 -101.70322418 312.87409019 C-101.72037903 310.94307101 -101.71654604 309.01190038 -101.71191406 307.08081055 C-101.71555969 305.9839946 -101.71920532 304.88717865 -101.72296143 303.75712585 C-101.19236325 299.29125784 -99.70383801 295.88602214 -96.35546875 292.8515625 C-91.06933744 289.71292204 -88.39507439 290.6640625 -81.35546875 290.6640625 C-81.35546875 237.5340625 -81.35546875 184.4040625 -81.35546875 129.6640625 C-84.98546875 129.6640625 -88.61546875 129.6640625 -92.35546875 129.6640625 C-96.14533764 128.08495046 -98.1887479 126.13081586 -100.35546875 122.6640625 C-101.43521536 119.42482266 -101.49533881 117.04360727 -101.51660156 113.63549805 C-101.52620911 112.39378342 -101.53581665 111.15206879 -101.54571533 109.87272644 C-101.55056381 108.51541325 -101.55484252 107.15809792 -101.55859375 105.80078125 C-101.56434838 104.40696715 -101.57010608 103.01315306 -101.5758667 101.61933899 C-101.58636837 98.69649894 -101.59221627 95.77368633 -101.59570312 92.85083008 C-101.60118171 89.11504478 -101.62519921 85.37962509 -101.65367508 81.64395428 C-101.67234861 78.76395121 -101.67750958 75.88403531 -101.679039 73.00397682 C-101.68205618 71.62732765 -101.69005307 70.25067967 -101.70322418 68.87409019 C-101.72037903 66.94307101 -101.71654604 65.01190038 -101.71191406 63.08081055 C-101.71555969 61.9839946 -101.71920532 60.88717865 -101.72296143 59.75712585 C-101.18061364 55.19236531 -99.69211949 51.80327901 -96.17700195 48.80737305 C-92.48956106 47.31318894 -89.1219956 47.28923347 -85.2109375 47.37109375 C-84.44115067 47.37533859 -83.67136383 47.37958344 -82.87825012 47.38395691 C-80.43279229 47.40067653 -77.98817518 47.4383148 -75.54296875 47.4765625 C-73.87956924 47.49161809 -72.21615674 47.50530496 -70.55273438 47.51757812 C-66.48665793 47.55055785 -62.42120562 47.60229244 -58.35546875 47.6640625 C-58.401875 46.44332031 -58.44828125 45.22257812 -58.49609375 43.96484375 C-58.84480642 30.94712134 -58.30956954 19.01776086 -49.40234375 8.6640625 C-36.50012261 -3.94268792 -16.56449533 -8.29383123 0 0 Z M-30.35546875 25.6640625 C-33.44881257 30.60165643 -33.73956089 34.41965882 -33.54296875 40.0390625 C-33.48109375 42.5553125 -33.41921875 45.0715625 -33.35546875 47.6640625 C-24.11546875 47.6640625 -14.87546875 47.6640625 -5.35546875 47.6640625 C-5.29359375 44.9621875 -5.23171875 42.2603125 -5.16796875 39.4765625 C-5.14065674 38.63456299 -5.11334473 37.79256348 -5.08520508 36.92504883 C-5.01944598 30.97632483 -6.43486207 27.88476398 -10.35546875 23.3515625 C-16.95742703 19.63796097 -24.84532878 20.42942953 -30.35546875 25.6640625 Z M207.64453125 27.6640625 C206.74214378 30.37122492 206.52601823 31.90183018 206.546875 34.67578125 C206.54937256 35.35858154 206.55187012 36.04138184 206.55444336 36.74487305 C206.56354736 37.60508057 206.57265137 38.46528809 206.58203125 39.3515625 C206.60265625 42.0946875 206.62328125 44.8378125 206.64453125 47.6640625 C215.88453125 47.6640625 225.12453125 47.6640625 234.64453125 47.6640625 C234.70640625 45.1478125 234.76828125 42.6315625 234.83203125 40.0390625 C234.85934326 39.25837402 234.88665527 38.47768555 234.91479492 37.67333984 C234.97077096 32.93162737 234.22536355 29.7835858 231.64453125 25.6640625 C228.04802312 22.24737978 225.04226299 21.3309009 220.20703125 21.0390625 C214.52267725 21.23293542 211.11311518 23.18108138 207.64453125 27.6640625 Z M-76.35546875 72.6640625 C-76.35546875 83.2240625 -76.35546875 93.7840625 -76.35546875 104.6640625 C40.46453125 104.6640625 157.28453125 104.6640625 277.64453125 104.6640625 C277.64453125 94.1040625 277.64453125 83.5440625 277.64453125 72.6640625 C160.82453125 72.6640625 44.00453125 72.6640625 -76.35546875 72.6640625 Z M-56.35546875 129.6640625 C-56.35546875 182.7940625 -56.35546875 235.9240625 -56.35546875 290.6640625 C47.26453125 290.6640625 150.88453125 290.6640625 257.64453125 290.6640625 C257.64453125 237.5340625 257.64453125 184.4040625 257.64453125 129.6640625 C154.02453125 129.6640625 50.40453125 129.6640625 -56.35546875 129.6640625 Z M-76.35546875 315.6640625 C-76.35546875 326.5540625 -76.35546875 337.4440625 -76.35546875 348.6640625 C40.46453125 348.6640625 157.28453125 348.6640625 277.64453125 348.6640625 C277.64453125 337.7740625 277.64453125 326.8840625 277.64453125 315.6640625 C160.82453125 315.6640625 44.00453125 315.6640625 -76.35546875 315.6640625 Z M83.71875 446.89453125 C79.0300012 453.75420432 77.85170315 459.39599807 78.64453125 467.6640625 C80.39380754 473.83921854 84.32629914 478.1922852 89.64453125 481.6640625 C95.67088638 484.57746598 102.55343158 484.80085725 108.9921875 483.01171875 C115.05305932 480.29074932 119.12837297 475.76529534 122.01953125 469.8515625 C123.5418711 462.08762928 123.20982624 455.96785854 119.34375 448.93359375 C115.87137932 444.29578372 111.08238371 441.47667999 105.64453125 439.6640625 C97.23274181 438.58364918 89.43423078 440.27477562 83.71875 446.89453125 Z " fill="#000000" transform="translate(155.35546875,3.3359375)"/>
<path d="M0 0 C3.12578143 1.6720747 5.39281175 3.7856235 7 7 C7.09971327 8.34427119 7.13934939 9.69327238 7.14717102 11.04121399 C7.15432632 11.88656708 7.16148163 12.73192017 7.16885376 13.60289001 C7.17288712 14.99695824 7.17288712 14.99695824 7.17700195 16.41918945 C7.18357315 17.39656067 7.19014435 18.37393188 7.19691467 19.38092041 C7.21667411 22.62504141 7.22831578 25.86911607 7.23828125 29.11328125 C7.24235678 30.21949514 7.2464323 31.32570904 7.25063133 32.46544456 C7.27150272 38.31965321 7.28580018 44.17383834 7.29516602 50.02807617 C7.30623653 56.08110745 7.34064108 62.13377173 7.38033772 68.18667316 C7.40645637 72.83549188 7.41485361 77.4842225 7.41844749 82.13310814 C7.42332524 84.36466134 7.43497279 86.59621029 7.45348549 88.82769203 C7.47777682 91.94963466 7.47693004 95.07061918 7.4699707 98.19262695 C7.48278076 99.11593307 7.49559082 100.0392392 7.50878906 100.99052429 C7.47455805 105.19957354 7.37922105 107.40135761 5.08000183 111.03092957 C1.24681265 114.65968574 -1.57394129 115.45506299 -6.96875 115.32421875 C-10.31551204 114.79002404 -12.44251471 113.13123774 -15 111 C-17.04444189 107.93333716 -17.2522568 107.30262895 -17.27415466 103.84526062 C-17.28412979 102.99997803 -17.29410492 102.15469543 -17.30438232 101.28379822 C-17.305047 100.35958572 -17.30571167 99.43537323 -17.30639648 98.4831543 C-17.31472 97.50724335 -17.32304352 96.5313324 -17.33161926 95.52584839 C-17.35576161 92.29193153 -17.36449693 89.05821624 -17.37109375 85.82421875 C-17.38005738 83.57843463 -17.38917917 81.33265114 -17.39845276 79.08686829 C-17.4149572 74.37503609 -17.42264544 69.66327506 -17.42553711 64.95141602 C-17.43092005 58.91520652 -17.46859092 52.87966651 -17.51428127 46.84364605 C-17.54403295 42.20334943 -17.55126028 37.5632143 -17.55226326 32.92283058 C-17.55646987 30.69768014 -17.56892169 28.47252941 -17.58978081 26.24747276 C-17.61665282 23.13282547 -17.61188134 20.01973354 -17.59936523 16.9050293 C-17.61419952 15.9868895 -17.62903381 15.06874969 -17.64431763 14.12278748 C-17.59461753 9.77696413 -17.3732084 6.8953563 -14.58753967 3.44343567 C-10.14636177 -0.75040631 -5.93278791 -0.83585986 0 0 Z " fill="#000000" transform="translate(261,154)"/>
<path d="M0 0 C0.7227562 -0.00525696 1.44551239 -0.01051392 2.19017029 -0.01593018 C4.56385323 -0.02906402 6.93685788 -0.02041605 9.31054688 -0.01025391 C10.96911751 -0.01227655 12.62768728 -0.01518958 14.28625488 -0.01895142 C17.75618996 -0.02336579 21.22589278 -0.0169724 24.69580078 -0.00292969 C29.13439676 0.01416179 33.57244845 0.00431584 38.01102448 -0.01364708 C41.4340624 -0.02450896 44.85697217 -0.02102758 48.28001404 -0.0132637 C49.91621465 -0.01126834 51.55242706 -0.01369759 53.18861389 -0.02070236 C55.47891888 -0.02835668 57.76835328 -0.01665803 60.05859375 0 C61.35953979 0.00238678 62.66048584 0.00477356 64.00085449 0.00723267 C68.77976791 0.52319164 72.20188532 1.88378383 75.40429688 5.51318359 C76.98686407 9.55752197 77.21588852 13.10264456 76.52929688 17.38818359 C74.46298468 21.44701112 72.80005738 23.81116746 68.52929688 25.38818359 C66.01663875 25.58793885 63.61441635 25.68198175 61.10205078 25.67871094 C60.3600795 25.68542816 59.61810822 25.69214539 58.85365295 25.69906616 C56.40432003 25.71804159 53.9552612 25.72197011 51.50585938 25.72412109 C49.79958992 25.7305494 48.09332158 25.73727779 46.38705444 25.74429321 C42.8110702 25.75626487 39.23518255 25.75997416 35.65917969 25.75878906 C31.0836958 25.75858589 26.50883317 25.78588615 21.93349648 25.82033348 C18.40924247 25.84260425 14.88513793 25.84662655 11.36082077 25.84556961 C9.67435948 25.84792537 7.98789406 25.85674757 6.30150223 25.87223434 C3.93900684 25.89189841 1.57785039 25.88605569 -0.78466797 25.87402344 C-1.476819 25.88526245 -2.16897003 25.89650146 -2.88209534 25.90808105 C-7.8390373 25.84414131 -10.63994235 24.46669875 -14.47070312 21.38818359 C-17.22699031 17.37687227 -16.99979613 13.08283422 -16.47070312 8.38818359 C-15.10084106 4.88742498 -14.02930693 3.72722196 -10.82043457 1.77963257 C-6.96388909 0.1776575 -4.16823588 0.00764725 0 0 Z " fill="#000000" transform="translate(315.470703125,242.61181640625)"/>
<path d="M0 0 C0.72100388 -0.00671722 1.44200775 -0.01343445 2.18486023 -0.02035522 C4.55902065 -0.03929157 6.93289774 -0.04325713 9.30712891 -0.04541016 C10.96473302 -0.05184099 12.62233599 -0.05856956 14.27993774 -0.06558228 C17.75159333 -0.07754402 21.22314949 -0.08126422 24.69482422 -0.08007812 C29.13230543 -0.07987497 33.56914599 -0.1071784 38.00647545 -0.14162254 C41.42954406 -0.16391505 44.85245904 -0.16791496 48.2755928 -0.16685867 C49.9109887 -0.16921104 51.54638906 -0.17801403 53.1817131 -0.19352341 C55.47445661 -0.21323258 57.76582569 -0.20732745 60.05859375 -0.1953125 C61.36033539 -0.19816254 62.66207703 -0.20101257 64.00326538 -0.20394897 C68.53853542 0.40954549 70.87896113 1.74935443 74.65869141 4.29052734 C77.45721532 8.20227624 77.31659023 12.66116612 76.65869141 17.29052734 C74.59237921 21.34935487 72.92945191 23.71351121 68.65869141 25.29052734 C66.14603328 25.4902826 63.74381088 25.5843255 61.23144531 25.58105469 C60.48947403 25.58777191 59.74750275 25.59448914 58.98304749 25.60140991 C56.53371456 25.62038534 54.08465573 25.62431386 51.63525391 25.62646484 C49.92898446 25.63289315 48.22271611 25.63962154 46.51644897 25.64663696 C42.94046473 25.65860862 39.36457709 25.66231791 35.78857422 25.66113281 C31.21309033 25.66092964 26.63822771 25.6882299 22.06289101 25.72267723 C18.538637 25.744948 15.01453246 25.7489703 11.4902153 25.74791336 C9.80375401 25.75026912 8.11728859 25.75909132 6.43089676 25.77457809 C4.06840137 25.79424216 1.70724492 25.78839944 -0.65527344 25.77636719 C-1.34742447 25.7876062 -2.0395755 25.79884521 -2.75270081 25.8104248 C-7.70955419 25.7464862 -10.51086331 24.36943667 -14.34130859 21.29052734 C-17.07870185 17.28728749 -16.99864667 12.9730467 -16.34130859 8.29052734 C-14.67085505 4.8877516 -13.53623981 2.91486268 -10.15560913 1.14852905 C-6.67035005 0.0859708 -3.64543941 0.02137549 0 0 Z " fill="#000000" transform="translate(136.34130859375,242.70947265625)"/>
<path d="M0 0 C1.11295692 -0.01007584 1.11295692 -0.01007584 2.24839783 -0.02035522 C4.69773075 -0.03933066 7.14678958 -0.04325917 9.59619141 -0.04541016 C11.30246086 -0.05183847 13.0087292 -0.05856685 14.71499634 -0.06558228 C18.29098058 -0.07755393 21.86686823 -0.08126322 25.44287109 -0.08007812 C30.01835498 -0.07987496 34.59321761 -0.10717522 39.16855431 -0.14162254 C42.69280831 -0.16389331 46.21691285 -0.16791561 49.74123001 -0.16685867 C51.4276913 -0.16921444 53.11415673 -0.17803663 54.80054855 -0.19352341 C57.16304394 -0.21318747 59.52420039 -0.20734475 61.88671875 -0.1953125 C62.57886978 -0.20655151 63.27102081 -0.21779053 63.98414612 -0.22937012 C68.94693998 -0.16535489 71.75677235 1.17795212 75.57275391 4.29052734 C78.4143867 8.55297654 78.07678708 12.29019823 77.57275391 17.29052734 C76.21244697 20.8424399 75.16601352 21.93119495 71.92347717 23.89517212 C68.06114632 25.50357816 65.26223358 25.67106707 61.08618164 25.67871094 C60.36181915 25.6839679 59.63745667 25.68922485 58.8911438 25.69464111 C56.51265477 25.7077735 54.1348427 25.69912844 51.75634766 25.68896484 C50.09538139 25.69098731 48.43441599 25.69390019 46.77345276 25.69766235 C43.29932161 25.70207634 39.82542246 25.69568378 36.35131836 25.68164062 C31.9036564 25.6645358 27.45653707 25.67440378 23.00889492 25.69235802 C19.58160834 25.70320956 16.15444998 25.69974348 12.7271595 25.69197464 C11.08734129 25.68997711 9.44751133 25.69241618 7.80770683 25.6994133 C5.51480221 25.70705202 3.22277136 25.69539125 0.92993164 25.67871094 C-0.37323502 25.67632416 -1.67640167 25.67393738 -3.01905823 25.67147827 C-7.77285419 25.14012171 -10.28175954 23.34313661 -13.73974609 20.16552734 C-16.09491707 16.15301383 -16.22774974 12.83738804 -15.42724609 8.29052734 C-11.69281106 0.95502995 -7.81497475 -0.0101742 0 0 Z " fill="#000000" transform="translate(314.42724609375,198.70947265625)"/>
<path d="M0 0 C1.11295692 -0.01007584 1.11295692 -0.01007584 2.24839783 -0.02035522 C4.69773075 -0.03933066 7.14678958 -0.04325917 9.59619141 -0.04541016 C11.30246086 -0.05183847 13.0087292 -0.05856685 14.71499634 -0.06558228 C18.29098058 -0.07755393 21.86686823 -0.08126322 25.44287109 -0.08007812 C30.01835498 -0.07987496 34.59321761 -0.10717522 39.16855431 -0.14162254 C42.69280831 -0.16389331 46.21691285 -0.16791561 49.74123001 -0.16685867 C51.4276913 -0.16921444 53.11415673 -0.17803663 54.80054855 -0.19352341 C57.16304394 -0.21318747 59.52420039 -0.20734475 61.88671875 -0.1953125 C62.57886978 -0.20655151 63.27102081 -0.21779053 63.98414612 -0.22937012 C68.94084523 -0.16543351 71.74278124 1.21106142 75.57275391 4.29052734 C77.89230905 7.70917402 78.10342993 10.91584608 78.02978516 14.96630859 C77.23363378 19.01511261 74.71032187 21.72550828 71.57275391 24.29052734 C68.02642059 25.47263845 65.18688523 25.43210857 61.44262695 25.45166016 C60.35914978 25.45910751 60.35914978 25.45910751 59.25378418 25.46670532 C56.86400397 25.48131067 54.47429017 25.48812654 52.08447266 25.49365234 C50.42161559 25.49940554 48.75875853 25.50516325 47.09590149 25.51092529 C43.60812064 25.52143093 40.12036281 25.52727632 36.63256836 25.53076172 C32.17039935 25.53624275 27.70853604 25.56026413 23.24646282 25.58873367 C19.81058371 25.60738808 16.37477778 25.61256716 12.93885231 25.6140976 C11.29426211 25.61711879 9.64967304 25.62512933 8.00513268 25.63828278 C5.70020905 25.65540079 3.39602643 25.65344924 1.09106445 25.64697266 C-0.21893021 25.65061829 -1.52892487 25.65426392 -2.87861633 25.65802002 C-7.64705488 25.16420512 -11.05774194 23.79698191 -14.30224609 20.22802734 C-15.96340183 15.89056514 -16.11329974 11.87427037 -15.42724609 7.29052734 C-11.62361805 0.77002213 -7.13041258 -0.00928298 0 0 Z " fill="#000000" transform="translate(135.42724609375,198.70947265625)"/>
<path d="M0 0 C1.14177956 -0.01226624 1.14177956 -0.01226624 2.30662537 -0.02478027 C4.83168753 -0.04964022 7.35669341 -0.06615296 9.88183594 -0.08056641 C11.17521 -0.08855192 11.17521 -0.08855192 12.49471283 -0.09669876 C17.05977998 -0.1234347 21.62481976 -0.14280697 26.18994141 -0.15722656 C30.90231086 -0.17386335 35.61397944 -0.21863127 40.32608414 -0.26959801 C43.95154612 -0.30327951 47.57684205 -0.31480502 51.20244598 -0.32045364 C52.93917946 -0.32716511 54.67590205 -0.34238458 56.41248322 -0.36634445 C58.84718112 -0.39801591 61.27999336 -0.39803047 63.71484375 -0.390625 C64.42883835 -0.40703033 65.14283295 -0.42343567 65.87846375 -0.44033813 C71.5144106 -0.37037214 73.79958327 1.3467243 77.61621094 5.19287109 C79.48326873 8.92698667 79.16501146 13.1267581 78.61621094 17.19287109 C76.91936286 20.79135925 74.57709642 22.79292762 70.87950134 24.33195496 C67.30097921 25.27603503 64.22804172 25.45363627 60.52856445 25.4675293 C59.84642883 25.47264023 59.16429321 25.47775116 58.46148682 25.48301697 C56.22260591 25.49683576 53.98403549 25.49596216 51.74511719 25.49365234 C50.17862332 25.49754337 48.61213051 25.50187888 47.04563904 25.50663757 C43.76826552 25.51408308 40.49099977 25.51382055 37.21362305 25.50854492 C33.02624653 25.50275086 28.83931242 25.51968759 24.65200901 25.5428896 C21.4185277 25.55766363 18.18515207 25.55849369 14.95164299 25.55537987 C13.40836651 25.55589118 11.86508381 25.56109312 10.32184029 25.57119179 C8.15868986 25.58361151 5.99639007 25.5767326 3.83325195 25.56518555 C2.60558609 25.56581497 1.37792023 25.5664444 0.11305237 25.5670929 C-4.98047751 25.02199814 -8.85805335 23.48387823 -12.82128906 20.13037109 C-15.11239167 15.82309819 -15.29121719 11.9664006 -14.38378906 7.19287109 C-10.87403752 0.74321698 -6.81190594 0.04018655 0 0 Z " fill="#000000" transform="translate(313.3837890625,154.80712890625)"/>
<path d="M0 0 C1.14177956 -0.01226624 1.14177956 -0.01226624 2.30662537 -0.02478027 C4.83168753 -0.04964022 7.35669341 -0.06615296 9.88183594 -0.08056641 C11.17521 -0.08855192 11.17521 -0.08855192 12.49471283 -0.09669876 C17.05977998 -0.1234347 21.62481976 -0.14280697 26.18994141 -0.15722656 C30.90231086 -0.17386335 35.61397944 -0.21863127 40.32608414 -0.26959801 C43.95154612 -0.30327951 47.57684205 -0.31480502 51.20244598 -0.32045364 C52.93917946 -0.32716511 54.67590205 -0.34238458 56.41248322 -0.36634445 C58.84718112 -0.39801591 61.27999336 -0.39803047 63.71484375 -0.390625 C64.42883835 -0.40703033 65.14283295 -0.42343567 65.87846375 -0.44033813 C71.5144106 -0.37037214 73.79958327 1.3467243 77.61621094 5.19287109 C79.48326873 8.92698667 79.16501146 13.1267581 78.61621094 17.19287109 C76.91936286 20.79135925 74.57709642 22.79292762 70.87950134 24.33195496 C67.30097921 25.27603503 64.22804172 25.45363627 60.52856445 25.4675293 C59.84642883 25.47264023 59.16429321 25.47775116 58.46148682 25.48301697 C56.22260591 25.49683576 53.98403549 25.49596216 51.74511719 25.49365234 C50.17862332 25.49754337 48.61213051 25.50187888 47.04563904 25.50663757 C43.76826552 25.51408308 40.49099977 25.51382055 37.21362305 25.50854492 C33.02624653 25.50275086 28.83931242 25.51968759 24.65200901 25.5428896 C21.4185277 25.55766363 18.18515207 25.55849369 14.95164299 25.55537987 C13.40836651 25.55589118 11.86508381 25.56109312 10.32184029 25.57119179 C8.15868986 25.58361151 5.99639007 25.5767326 3.83325195 25.56518555 C2.60558609 25.56581497 1.37792023 25.5664444 0.11305237 25.5670929 C-4.98047751 25.02199814 -8.85805335 23.48387823 -12.82128906 20.13037109 C-15.11239167 15.82309819 -15.29121719 11.9664006 -14.38378906 7.19287109 C-10.87403752 0.74321698 -6.81190594 0.04018655 0 0 Z " fill="#000000" transform="translate(134.3837890625,154.80712890625)"/>
</svg>
