<?xml version="1.0" encoding="UTF-8"?>
<svg version="1.1" xmlns="http://www.w3.org/2000/svg" width="512" height="512">
<path d="M0 0 C2.31307619 3.46961429 2.25083631 4.77749062 2.25333309 8.86975956 C2.25894849 10.10268775 2.26456388 11.33561594 2.27034944 12.60590559 C2.26649949 13.98149798 2.26247175 15.35708987 2.25828552 16.73268127 C2.2611386 18.18832478 2.26487575 19.64396678 2.26942402 21.09960598 C2.27943434 25.10970575 2.27702378 29.11971834 2.27269709 33.12982476 C2.2702265 37.45107763 2.27928209 41.77230726 2.28707886 46.09355164 C2.29913927 53.58600318 2.30423262 61.07843344 2.30496025 68.57089424 C2.3062846 79.41470282 2.32138557 90.25845964 2.34045542 101.10224997 C2.37132017 118.70886663 2.39547356 136.3154846 2.41333008 153.92211914 C2.41440276 154.97647716 2.41547544 156.03083518 2.41658062 157.11714344 C2.42839443 168.87385051 2.43859974 180.63055809 2.44702148 192.38726807 C2.45009519 196.64660646 2.45318402 200.90594484 2.45629883 205.1652832 C2.45706417 206.21623744 2.45782951 207.26719167 2.45861804 208.349993 C2.47170508 225.88117029 2.49635435 243.41231027 2.53004223 260.94345993 C2.55032459 271.75722081 2.56062266 282.57090183 2.55805302 293.38468187 C2.55701698 300.7990269 2.56667052 308.21330889 2.58469205 315.62763191 C2.59472522 319.90427331 2.59987796 324.18077522 2.59192467 328.45742416 C2.58472318 332.37650854 2.59137909 336.29532171 2.60881007 340.21437167 C2.61267853 341.62830864 2.61154302 343.04227054 2.60475319 344.45619649 C2.55317466 356.12746107 3.41931954 365.44200524 11.7578125 374.0859375 C17.1734655 378.70905591 23.86996628 381.10969283 31 381 C40.0998167 380.10283497 46.72128299 375.91017379 52.67578125 369.13671875 C57.98868829 360.56397495 57.43401622 351.95481607 57.43945312 342.17382812 C57.58979276 332.95126911 58.73643085 324.1131937 65.1875 317.0625 C72.16350322 311.05545599 79.16231704 309.40304363 88.19361877 309.51898193 C89.18136116 309.51556423 90.16910355 309.51214653 91.18677753 309.50862527 C94.47581235 309.50206955 97.76401967 309.52398478 101.05297852 309.54589844 C103.41880779 309.54702741 105.78463846 309.54639208 108.15046692 309.54412842 C114.55894386 309.54298231 120.9671204 309.56647548 127.37552762 309.59442425 C133.39847535 309.61883615 139.42145671 309.6209198 145.44444477 309.62503174 C157.36902552 309.6337722 169.29349642 309.66035371 181.21801758 309.69824219 C192.79711358 309.73499472 204.37617967 309.76329057 215.95532227 309.78027344 C216.66983669 309.78132433 217.38435112 309.78237523 218.1205175 309.78345796 C221.7052587 309.78867836 225.29000012 309.79373313 228.87474167 309.79870558 C258.58323391 309.84012867 288.29161172 309.91084163 318 310 C317.69480877 307.05840032 317.69480877 307.05840032 317 304 C314.48546592 302.11381288 314.48546592 302.11381288 311.3125 300.875 C304.51207867 297.8212563 304.51207867 297.8212563 301.5625 295.5625 C299.15336227 293.78850323 299.15336227 293.78850323 296.5625 294 C293.81008334 294.97767281 293.81008334 294.97767281 290.875 297 C285.68430005 300.08727905 279.66423754 300.66506231 273.76171875 299.59375 C264.50788611 296.57502401 259.61216485 289.50345595 255.125 281.3125 C254.6403125 280.45849609 254.155625 279.60449219 253.65625 278.72460938 C249.05149134 270.53765719 247.39716267 263.04556551 249.54296875 253.61328125 C252.08360696 247.54199088 257.38910416 244.10217799 263 241 C265.3125 240.30859375 265.3125 240.30859375 267 240 C266.9278125 238.9378125 266.855625 237.875625 266.78125 236.78125 C266.68736353 235.35417564 266.59362127 233.92709178 266.5 232.5 C266.45230469 231.80390625 266.40460938 231.1078125 266.35546875 230.390625 C266.31035156 229.69453125 266.26523437 228.9984375 266.21875 228.28125 C266.17008789 227.57597168 266.12142578 226.87069336 266.07128906 226.14404297 C266 224 266 224 266.17089844 221.82861328 C266.40544527 219.45476901 266.40544527 219.45476901 266 216 C263.55704304 213.5292747 263.55704304 213.5292747 260.25 211.875 C254.43855998 208.60431033 251.14225344 205.42676032 249 199 C247.87051668 189.06340625 249.87364306 182.44606826 255 174 C255.56460937 173.01515625 256.12921875 172.0303125 256.7109375 171.015625 C260.8258067 164.12647748 264.80963728 158.85342967 272.25 155.5625 C280.53710469 154.3194343 286.98309877 155.25833033 293.9296875 160.0390625 C296.75765962 161.35166843 298.06342777 160.98033605 301 160 C303.7712659 158.45556924 303.7712659 158.45556924 306.5 156.5625 C309.92716589 154.25686452 313.10821966 152.40301502 317 151 C317.03738281 150.154375 317.07476562 149.30875 317.11328125 148.4375 C317.63187118 139.48928163 318.35255234 131.64744766 325 125 C332.57639142 119.64770439 339.87610924 119.79319706 348.8125 119.75 C350.39514648 119.7190625 350.39514648 119.7190625 352.00976562 119.6875 C359.84443734 119.64844868 366.6851251 120.40073093 372.8125 125.8125 C373.35519531 126.27269531 373.89789063 126.73289063 374.45703125 127.20703125 C378.86599642 132.3303604 379.41483656 136.92796834 379.1875 143.375 C379.17396484 144.11105469 379.16042969 144.84710938 379.14648438 145.60546875 C379.11144869 147.40396743 379.05765288 149.20208422 379 151 C379.763125 151.20625 380.52625 151.4125 381.3125 151.625 C386.49898594 153.55894391 391.19033084 156.2785146 396 159 C395.96072388 157.58521362 395.96072388 157.58521362 395.9206543 156.1418457 C395.83523078 152.62866855 395.77265702 149.11660092 395.7253418 145.6027832 C395.70025891 144.08470199 395.6661834 142.56674082 395.62280273 141.04907227 C395.56186707 138.86184035 395.53373105 136.67620961 395.51171875 134.48828125 C395.48553467 133.17384033 395.45935059 131.85939941 395.43237305 130.50512695 C396.13892012 126.14216082 397.58304173 124.70414379 401 122 C403.1328125 121.5546875 403.1328125 121.5546875 405.125 121.875 C406.11886719 121.99488281 406.11886719 121.99488281 407.1328125 122.1171875 C409.94979693 123.44906717 410.64221438 125.23121472 412 128 C412.34057617 131.13793945 412.34057617 131.13793945 412.29296875 134.61328125 C412.28330078 135.86044922 412.27363281 137.10761719 412.26367188 138.39257812 C412.23853516 139.68615234 412.21339844 140.97972656 412.1875 142.3125 C412.17396484 143.62541016 412.16042969 144.93832031 412.14648438 146.29101562 C412.11117443 149.52776077 412.0618528 152.76367105 412 156 C412.59530518 155.91476074 413.19061035 155.82952148 413.80395508 155.74169922 C421.77032962 154.70735739 421.77032962 154.70735739 425.6875 156.125 C426.37199219 156.35445312 427.05648438 156.58390625 427.76171875 156.8203125 C435.17569356 160.72785245 438.3762823 166.40083866 442.3125 173.5625 C442.84939453 174.50802734 443.38628906 175.45355469 443.93945312 176.42773438 C448.24225368 184.10549325 450.24255001 190.26537896 448.609375 199.1171875 C445.99301188 207.73776855 438.44192814 211.86559548 431 216 C429.19997617 229.45545314 429.19997617 229.45545314 433.015625 241.6171875 C435.62491168 242.9999532 438.23440229 243.97631607 441 245 C445.79756147 249.11774507 448.56346418 253.74576003 449.21484375 260.09375 C449.7339553 272.22019589 441.94752598 283.54645374 435 293 C429.88098728 298.40150005 424.68144388 299.68436423 417.3828125 300.08984375 C415 300 415 300 412 299 C412 302.63 412 306.26 412 310 C413.52810303 309.97905273 415.05620605 309.95810547 416.63061523 309.93652344 C422.32778465 309.86384295 428.02491347 309.8180979 433.72241211 309.78027344 C436.18309432 309.76022188 438.64372925 309.73297353 441.10424805 309.69824219 C444.65164898 309.6494412 448.19841707 309.62696572 451.74609375 309.609375 C452.8370787 309.58872986 453.92806366 309.56808472 455.05210876 309.54681396 C463.73202699 309.54429338 470.16763207 311.36816346 476.8125 317.0625 C484.0915629 325.01624863 484.61741448 335.15915999 484.4375 345.4375 C484.44458984 346.57509766 484.45167969 347.71269531 484.45898438 348.88476562 C484.35081816 363.4705632 480.62311261 374.74027833 470.9375 385.75 C462.54109163 393.6863312 451.51043855 397.15211994 440.26304626 397.14044189 C439.37153085 397.14341302 438.48001543 397.14638414 437.5614844 397.1494453 C434.5682425 397.15813082 431.57504061 397.1596404 428.58178711 397.16113281 C426.43830785 397.16576092 424.29482941 397.17078558 422.15135193 397.17617798 C416.3251272 397.18930078 410.498914 397.19574619 404.6726768 397.20018864 C401.03565932 397.2031183 397.398645 397.20722281 393.7616291 397.21169281 C382.39040229 397.22536466 371.01918268 397.23503402 359.64794821 397.2388947 C346.50520515 397.24338106 333.3625658 397.26095707 320.2198543 397.2898953 C310.06949013 397.31147242 299.91915524 397.32159678 289.76876837 397.32293582 C283.70168515 397.32398629 277.63469946 397.32994589 271.5676403 397.34775543 C265.86559612 397.36416854 260.16372351 397.36642468 254.4616642 397.35761642 C252.36497922 397.35684253 250.26828526 397.36123479 248.17162323 397.37107468 C245.3175312 397.38368771 242.4640568 397.37797585 239.60997009 397.36749268 C238.77321037 397.37554908 237.93645064 397.38360548 237.07433456 397.39190602 C231.42919037 397.34314305 231.42919037 397.34314305 229.31952769 395.65644145 C227.32716291 393.15536805 227.12652486 391.1631216 227 388 C228.13779872 385.67268444 229.16840714 383.83159286 231 382 C233.67070422 381.89419525 236.31594086 381.85395602 238.9874115 381.85523987 C239.83467271 381.85171302 240.68193392 381.84818618 241.55486971 381.84455246 C244.41671214 381.83380995 247.27852135 381.83017481 250.14038086 381.82641602 C252.18339175 381.82011472 254.22640125 381.8133494 256.26940918 381.80615234 C260.68161165 381.79144871 265.09380869 381.7797374 269.50602531 381.77020454 C276.48610309 381.75478373 283.46613507 381.7308324 290.44618225 381.70530701 C310.2994599 381.6340278 330.15276435 381.57440595 350.00610352 381.52319336 C360.96139899 381.49485788 371.91664948 381.45945407 382.87189776 381.41653961 C389.80613742 381.38980417 396.74032614 381.37187551 403.67460716 381.36050236 C407.9995423 381.35135184 412.32441592 381.33397751 416.64931488 381.31432343 C418.64951417 381.30687303 420.64972928 381.30276838 422.6499424 381.30232811 C442.58027858 381.83843556 442.58027858 381.83843556 459.5 372.55078125 C466.78808856 364.2866094 467.21402227 356.03396535 467.3125 345.5625 C467.35600586 344.02625977 467.35600586 344.02625977 467.40039062 342.45898438 C467.45011786 336.54909322 467.35632144 332.4430144 463 328 C458.71928946 326.2274479 455.082119 325.7490799 450.47160435 325.74552441 C449.16815179 325.73969221 447.86469924 325.73386002 446.52174813 325.72785109 C445.082171 325.73148399 443.64259435 325.73530835 442.20301819 325.73930359 C440.66840108 325.73628243 439.13378547 325.73239313 437.59917253 325.72771102 C433.38483152 325.71741774 429.17057545 325.71961622 424.95622742 325.72389162 C420.41013488 325.72635641 415.86406293 325.71734778 411.31797791 325.70985413 C402.41296067 325.69709847 393.50797357 325.6953145 384.60294873 325.69765439 C377.36582896 325.69943665 370.12871834 325.69768988 362.89159966 325.69342995 C361.86199927 325.69283476 360.83239889 325.69223957 359.7715985 325.69162634 C357.68004382 325.69041461 355.58848914 325.68920047 353.49693447 325.68798397 C333.87826605 325.6771052 314.25961482 325.67927258 294.64094543 325.68536881 C276.68849021 325.69053892 258.73608923 325.67928065 240.78364474 325.66027059 C222.35404361 325.64090472 203.92446815 325.63263395 185.49485677 325.63639385 C175.1464204 325.63830771 164.79803021 325.63580027 154.44960213 325.62167931 C145.64046625 325.60978051 136.83140499 325.60834377 128.02226812 325.62046947 C123.52724425 325.62636857 119.03235695 325.62742916 114.53734207 325.61546707 C110.42240374 325.60464361 106.30771661 325.6076693 102.1927902 325.62172876 C100.70429509 325.62438545 99.21578052 325.62197872 97.72730447 325.61399289 C87.41422157 325.40275448 87.41422157 325.40275448 78 329 C75.03849908 332.58016416 74.63212868 335.40146622 74.62890625 339.97265625 C74.61150391 341.12056641 74.59410156 342.26847656 74.57617188 343.45117188 C74.56716085 345.83136885 74.56186409 348.21158321 74.56054688 350.59179688 C74.40113666 360.45873976 72.73466417 368.77793414 67.41603088 377.18226624 C66.96409142 377.89845155 66.51215197 378.61463686 66.04651737 379.35252476 C65.70116664 379.89619159 65.35581591 380.43985842 65 381 C66.07813571 381.00219984 66.07813571 381.00219984 67.17805195 381.00444412 C84.65407998 381.04146993 102.12989544 381.10042818 119.60576344 381.18390274 C128.05692177 381.22373938 136.50798637 381.25610828 144.95922852 381.27099609 C152.32396653 381.28398874 159.68849869 381.31089192 167.05312079 381.35461307 C170.95393497 381.377282 174.85449474 381.39290746 178.75538063 381.39188385 C182.42531513 381.39114041 186.09468611 381.40896238 189.76447487 381.44116783 C191.75699581 381.45377961 193.74961109 381.4465782 195.74215698 381.43885803 C196.92426254 381.45277084 198.1063681 381.46668365 199.32429504 381.48101807 C200.35393781 381.48470524 201.38358057 381.48839241 202.44442463 381.49219131 C205 382 205 382 206.82738781 383.81368637 C208.56183276 387.04752674 208.45064268 389.39485859 208 393 C206.43230534 395.18700409 206.43230534 395.18700409 204 397 C201.40663948 397.39326041 199.23665319 397.54130146 196.64561462 397.50793457 C195.53119479 397.51729451 195.53119479 397.51729451 194.39426142 397.52684355 C191.90306234 397.54280649 189.41283731 397.53015665 186.92163086 397.51757812 C185.13595 397.52299812 183.35027361 397.53012009 181.56460571 397.53881836 C176.71084184 397.55707844 171.8574175 397.54997068 167.00364757 397.53730202 C161.91986724 397.52717727 156.83611606 397.53656726 151.75233459 397.54284668 C143.20698839 397.55012925 134.66178032 397.54052424 126.11645508 397.52148438 C116.25421488 397.4997632 106.39230608 397.50672991 96.53007406 397.52879 C88.05512829 397.54698489 79.58028191 397.5494809 71.1053229 397.53903532 C66.04736794 397.53281656 60.98956828 397.53191913 55.93162346 397.54518127 C51.16841777 397.55679693 46.40563543 397.54861022 41.64247513 397.52560425 C39.90069975 397.52034545 38.15888833 397.52178206 36.41712761 397.53065491 C21.82300247 397.5981031 9.80364255 395.29420935 -1.16015625 384.96484375 C-12.44529334 373.00470781 -14.30596117 360.37562618 -14.26742554 344.47418213 C-14.27116651 343.0056716 -14.2757698 341.53716305 -14.28115618 340.06865764 C-14.29334522 336.0510631 -14.29313061 332.03355208 -14.29076743 328.01594329 C-14.29035826 323.67648404 -14.30140761 319.33705121 -14.31088257 314.99760437 C-14.32746818 306.50475694 -14.3329909 298.01193728 -14.33410732 289.51907501 C-14.33505842 282.61810766 -14.33917175 275.71714945 -14.34550858 268.816185 C-14.36310992 249.24985943 -14.37234852 229.68355577 -14.37084763 210.11722222 C-14.37076772 209.06324104 -14.3706878 208.00925985 -14.37060547 206.92333984 C-14.37052371 205.86807267 -14.37044195 204.81280549 -14.37035771 203.72556052 C-14.36954386 186.60287748 -14.38870934 169.4802822 -14.4168822 152.35762456 C-14.44558313 134.77544628 -14.45942422 117.19331086 -14.45769465 99.61110854 C-14.45703006 89.74007313 -14.46255341 79.86912987 -14.48405075 69.99811554 C-14.50222525 61.59924014 -14.50664026 53.20049874 -14.4930319 44.80161223 C-14.48648493 40.51537241 -14.48644734 36.22938997 -14.5037384 31.94317436 C-14.51939691 28.02145063 -14.51668026 24.10018991 -14.49917014 20.17847797 C-14.49608436 18.75807321 -14.49979171 17.33763449 -14.51089029 15.91726974 C-14.52495799 13.98964817 -14.51206425 12.06188586 -14.49777794 10.1342659 C-14.49821267 9.06263742 -14.49864741 7.99100893 -14.49909532 6.88690686 C-13.87238341 3.26182998 -12.56636225 1.59340119 -10 -1 C-6.00471255 -2.33176248 -3.90144863 -1.41870859 0 0 Z M335.91015625 137.3984375 C332.97643266 141.39406105 333.33376583 145.22779337 333.375 150.0625 C333.375 151.86593242 333.36251431 153.66941967 333.3359375 155.47265625 C333.34157715 156.26937744 333.3472168 157.06609863 333.35302734 157.88696289 C332.90592141 160.56310525 332.12144662 161.35136758 330 163 C328.25756836 163.94799805 328.25756836 163.94799805 326.33984375 164.76171875 C325.63335693 165.07238281 324.92687012 165.38304687 324.19897461 165.703125 C323.45268799 166.02796875 322.70640137 166.3528125 321.9375 166.6875 C315.54915903 169.54021888 310.41470941 172.57344254 305.37109375 177.53125 C301.95019915 179.6502885 298.8547209 179.69850347 295 179 C291.56315259 177.61042756 288.51566791 175.62682788 285.38085938 173.66796875 C282.53771375 171.99553015 280.67650044 170.92152198 277.33984375 171.30859375 C273.9936817 173.72743877 272.28458006 176.64239837 270.25 180.1875 C269.85167969 180.83525391 269.45335937 181.48300781 269.04296875 182.15039062 C266.55618206 186.36949822 265.07339217 189.99098407 265 195 C267.04949272 198.35867437 271.21946238 200.08021476 274.5625 202.0625 C280.74493243 205.74493243 280.74493243 205.74493243 283 208 C283.11938477 210.08447266 283.11938477 210.08447266 282.94140625 212.6640625 C282.88525146 213.61418213 282.82909668 214.56430176 282.77124023 215.54321289 C282.70235596 216.56020264 282.63347168 217.57719238 282.5625 218.625 C282.10791264 225.9296898 282.05782158 232.80231398 282.9375 240.0625 C283.43352977 246.33695447 283.43352977 246.33695447 281.60546875 249.1328125 C279.47907081 250.80205585 277.46624034 251.89678714 275 253 C273.34561032 253.79493295 271.69943107 254.60721072 270.0625 255.4375 C269.31097656 255.76621094 268.55945313 256.09492188 267.78515625 256.43359375 C265.70768299 257.98657902 265.70768299 257.98657902 264.984375 261.14453125 C265.00476823 266.17656168 266.62379 269.02834544 269.1875 273.25 C269.58775391 273.95640625 269.98800781 274.6628125 270.40039062 275.390625 C273.3695321 280.47547441 273.3695321 280.47547441 278 284 C282.29470572 283.26675756 285.66159422 281.03730129 289.375 278.875 C296.6358656 274.91630944 296.6358656 274.91630944 301.015625 275.29296875 C304.54078499 276.54898048 307.02286697 279.18202181 309.796875 281.62890625 C314.69067542 285.25151217 320.11624603 287.56767413 325.66333008 290.02905273 C326.46665771 290.38813721 327.26998535 290.74722168 328.09765625 291.1171875 C328.82476807 291.43284668 329.55187988 291.74850586 330.30102539 292.07373047 C332 293 332 293 333 295 C333.23188428 297.54786428 333.41866375 300.0725115 333.5625 302.625 C333.7790625 306.275625 333.7790625 306.275625 334 310 C343.57 310 353.14 310 363 310 C363.495 303.565 363.495 303.565 364 297 C367.20695572 291.6550738 369.18321737 290.67495667 374.625 288.625 C381.30611276 285.9259776 386.54268353 282.75476538 392 278 C395.72340686 275.51772876 398.68445498 275.3410247 403 276 C405.59678327 277.06878771 407.85686492 278.50614502 410.1875 280.0625 C414.56364647 283.00271416 414.56364647 283.00271416 419.6328125 284.203125 C423.33620368 282.32087338 424.73163213 279.24937862 426.6875 275.6875 C427.07744141 275.01009766 427.46738281 274.33269531 427.86914062 273.63476562 C428.61488856 272.33066282 429.34843456 271.01948426 430.06787109 269.70068359 C430.78601813 268.39041323 431.54983674 267.10510443 432.33203125 265.83203125 C433.30074903 263.17513864 432.95098241 261.63739121 432 259 C430.23139153 257.2844936 430.23139153 257.2844936 427.9375 256 C426.72900391 255.24203125 426.72900391 255.24203125 425.49609375 254.46875 C423.89786195 253.52831939 422.28666022 252.6093899 420.66015625 251.71875 C415.23250942 248.65649718 415.23250942 248.65649718 413.9375 245 C414 242 414 242 414.49609375 239.86328125 C415.1836187 235.95664725 415.14461244 232.14594473 415.125 228.1875 C415.12886719 227.41857422 415.13273438 226.64964844 415.13671875 225.85742188 C415.13033543 222.07530491 414.96190479 218.47587766 414.3671875 214.73828125 C413.98333566 210.83034288 413.83652511 209.23969327 416 206 C418.3609934 204.17471302 420.88728619 202.74582991 423.5 201.3125 C428.55696769 198.58333555 428.55696769 198.58333555 433 195 C432.82702978 189.30063121 430.06947451 184.96675375 427.25 180.1875 C426.60417969 179.02444336 426.60417969 179.02444336 425.9453125 177.83789062 C423.48811024 173.57203508 423.48811024 173.57203508 419.59765625 170.7421875 C415.23039611 171.17562986 411.99571171 173.73000968 408.43554688 176.10742188 C404.0023273 178.88491967 400.23022063 180.1566391 395 179 C392.50930517 177.53112869 390.56244035 176.19232273 388.375 174.375 C382.4988703 169.79608253 376.85766354 166.96022575 369.86328125 164.44921875 C366.34678019 162.66937988 365.41867397 161.67387639 364 158 C363.51977581 153.93459776 363.56361641 149.86206129 363.56054688 145.7734375 C363.52709022 141.07530025 363.52709022 141.07530025 361.5859375 136.94140625 C357.44914169 135.43541261 353.42964091 135.52801432 349.0625 135.5625 C348.16853516 135.54251953 347.27457031 135.52253906 346.35351562 135.50195312 C342.37756119 135.50490484 339.56191984 135.74567977 335.91015625 137.3984375 Z M386.375 300 C385.66859375 300.3815625 384.9621875 300.763125 384.234375 301.15625 C382.48757733 302.10046495 380.74352589 303.04975718 379 304 C379 305.98 379 307.96 379 310 C384.61 310 390.22 310 396 310 C396 305.38 396 300.76 396 296 C392.44835794 296 389.43795716 298.32724111 386.375 300 Z " fill="#000000" transform="translate(21,115)"/>
<path d="M0 0 C1.59353199 -0.00461324 3.18705972 -0.01096899 4.78057861 -0.01890898 C9.14399307 -0.03556741 13.50705643 -0.02737187 17.87047195 -0.0149641 C22.58221026 -0.00590163 27.29388885 -0.01988928 32.00561523 -0.03088379 C41.22976757 -0.0486608 50.45378963 -0.04483266 59.67794704 -0.03323323 C67.17528285 -0.02419597 74.67258218 -0.02297617 82.16992188 -0.02732849 C83.2373934 -0.02794142 84.30486492 -0.02855436 85.40468407 -0.02918586 C87.57330069 -0.03046478 89.7419173 -0.03176163 91.91053391 -0.03307623 C112.24082314 -0.04447963 132.5710402 -0.03137206 152.9013176 -0.00987476 C170.34179995 0.00799599 187.78217581 0.00489182 205.22265625 -0.0135498 C225.48070021 -0.03496073 245.73868093 -0.04338102 265.99673462 -0.03110075 C268.15732828 -0.02982657 270.31792195 -0.02856908 272.47851562 -0.02732849 C273.54154089 -0.02671139 274.60456615 -0.02609429 275.69980431 -0.02545848 C283.18725478 -0.02200626 290.67466512 -0.0278312 298.16210938 -0.0372467 C307.28807888 -0.04847051 316.41391078 -0.04541855 325.53986454 -0.02412373 C330.19518163 -0.01361851 334.85026937 -0.00948252 339.50558472 -0.02272034 C343.76923138 -0.03466095 348.03243663 -0.02805429 352.2960434 -0.00681013 C353.83629674 -0.00235113 355.37658757 -0.00459457 356.91681671 -0.01431328 C367.19803927 -0.07419797 375.10235564 0.72935408 383.13671875 7.57043457 C391.70141678 17.03073585 390.90515112 29.27923352 390.85766602 41.21057129 C390.86473379 43.08583756 390.8734824 44.96109813 390.8837738 46.83634949 C390.9061701 51.90001638 390.90335266 56.96336931 390.89445233 62.02706671 C390.88932677 66.25968279 390.89664694 70.49224069 390.90392441 74.72485077 C390.92088917 84.70565752 390.91738834 94.68631121 390.90063477 104.66711426 C390.88367782 114.96193939 390.89960479 125.2563416 390.93185765 135.55112064 C390.95853146 144.4006361 390.96583667 153.25001972 390.95734257 162.09957135 C390.95241172 167.38083686 390.95463911 172.66184735 390.97513008 177.9430809 C390.99345508 182.90258461 390.98756755 187.861477 390.96293068 192.82094765 C390.95791458 194.64104341 390.96143324 196.46118554 390.97407913 198.28124428 C390.98997129 200.76473052 390.97509789 203.24619358 390.95240784 205.72958374 C390.96424357 206.45068734 390.97607929 207.17179094 390.98827368 207.91474617 C390.91703189 211.74866961 390.40393353 213.4063905 388.00761318 216.45892525 C385.32421875 218.50793457 385.32421875 218.50793457 381.76171875 219.07043457 C377.69349476 218.40472519 376.7539471 217.77680259 374.32421875 214.50793457 C373.93419488 211.81718624 373.78901913 209.53589626 373.82542419 206.84742737 C373.81734736 205.68378014 373.81734736 205.68378014 373.80910736 204.49662489 C373.79582268 201.89468694 373.81098975 199.29369007 373.82592773 196.69177246 C373.82210521 194.82739325 373.81648675 192.96301698 373.8092041 191.09864807 C373.79724264 187.08255159 373.79775124 183.06671648 373.80779839 179.05061531 C373.82333795 172.70169258 373.8096959 166.3530392 373.79176331 160.00413513 C373.76092138 147.67287287 373.75944304 135.34169256 373.76141357 123.01039886 C373.76280576 107.31754841 373.75249711 91.62476097 373.71283585 75.93195719 C373.69788425 69.61928582 373.69818577 63.30685205 373.71031368 56.99417698 C373.71501923 53.06827387 373.70751312 49.142462 373.69676971 45.21657372 C373.69436031 43.39486755 373.69711041 41.57314622 373.70537758 39.75145721 C373.71598372 37.26587163 373.70825903 34.7809882 373.69602966 32.29542542 C373.70360572 31.57343792 373.71118177 30.85145043 373.71898741 30.10758454 C373.67328467 25.73111996 373.22784046 22.8461602 370.32421875 19.50793457 C363.70410305 15.21007753 356.03918444 16.08966765 348.40698242 16.12698364 C346.87150077 16.12352534 345.33602159 16.11875962 343.8005476 16.11280191 C339.58842412 16.10028592 335.37650473 16.10646501 331.16438055 16.11576056 C326.6189826 16.12254825 322.07361974 16.11207121 317.52822876 16.1038208 C308.62667396 16.0904783 299.72519503 16.09336352 290.82363725 16.10205872 C283.58939888 16.10883282 276.35518179 16.10975318 269.12094116 16.10648727 C268.09147627 16.10602758 267.06201138 16.10556788 266.00135058 16.10509425 C263.91003743 16.10413507 261.81872429 16.10316243 259.72741115 16.10217647 C240.1154039 16.09362106 220.50343872 16.10345909 200.89143836 16.11957757 C184.06204461 16.13298089 167.23271294 16.13065284 150.40332031 16.11682129 C130.86167154 16.10076815 111.32005964 16.09444505 91.77840519 16.10365808 C89.69476891 16.10461373 87.61113263 16.10555684 85.52749634 16.10648727 C84.50229722 16.1069501 83.4770981 16.10741293 82.42083234 16.10788978 C75.19496443 16.11048046 67.9691199 16.10610697 60.74325562 16.09904861 C51.93779849 16.09063639 43.1324216 16.09290794 34.32697368 16.10889085 C29.83397172 16.11677728 25.34110355 16.1198588 20.84810257 16.10994339 C16.73504854 16.10100372 12.62225232 16.1059173 8.50922167 16.12187605 C7.02143185 16.12522693 5.53362025 16.12352284 4.04584444 16.11624868 C-6.26347785 15.91249149 -6.26347785 15.91249149 -15.67578125 19.50793457 C-18.80845433 23.23440856 -19.04867566 26.29311579 -19.04467773 31.07067871 C-19.05156113 32.37875992 -19.05844452 33.68684113 -19.0655365 35.03456116 C-19.06235853 35.72845003 -19.05918056 36.42233891 -19.0559063 37.13725471 C-19.04676573 39.31917364 -19.05705124 41.50023882 -19.07252502 43.68211365 C-19.11255182 49.88226066 -19.11382392 56.082338 -19.11157227 62.28259277 C-19.11152117 66.08162726 -19.13068148 69.88019829 -19.16090584 73.67910576 C-19.17172818 75.8264599 -19.15960578 77.97292887 -19.14707947 80.12025452 C-19.15711502 81.42518356 -19.16715057 82.73011261 -19.17749023 84.07458496 C-19.17732407 85.2231044 -19.1771579 86.37162384 -19.17698669 87.5549469 C-19.7818711 91.13601282 -20.84907947 92.30296175 -23.67578125 94.50793457 C-25.67578125 95.07434082 -25.67578125 95.07434082 -27.67578125 95.07043457 C-28.66578125 95.10330566 -28.66578125 95.10330566 -29.67578125 95.13684082 C-32.82593582 94.14626487 -33.87765665 92.21326338 -35.67578125 89.50793457 C-36.18371582 86.43710327 -36.18371582 86.43710327 -36.19335938 82.96447754 C-36.21227234 81.00621536 -36.21227234 81.00621536 -36.23156738 79.00839233 C-36.22440283 77.58896343 -36.21619767 76.16953946 -36.20703125 74.75012207 C-36.20972934 73.28146101 -36.2136144 71.81280171 -36.21862793 70.34414673 C-36.2245193 67.26575719 -36.21597981 64.18783244 -36.19726562 61.10949707 C-36.17459617 57.19243787 -36.18752354 53.2764824 -36.21155548 49.35946465 C-36.22612729 46.32392323 -36.22135395 43.28863588 -36.21104431 40.25308609 C-36.20840198 38.81081126 -36.21155757 37.3685123 -36.22096252 35.92626572 C-36.27324475 25.64662049 -35.74294214 15.5311709 -28.48828125 7.57043457 C-19.80214233 0.17813522 -10.97112618 -0.06922688 0 0 Z " fill="#000000" transform="translate(42.67578125,-0.5079345703125)"/>
<path d="M0 0 C1.81845428 -0.00503792 1.81845428 -0.00503792 3.67364502 -0.01017761 C6.98380013 -0.0180258 10.29389249 -0.0213538 13.60405254 -0.0219934 C15.67744652 -0.02270666 17.75083402 -0.02484621 19.82422638 -0.02749062 C27.07292596 -0.0367296 34.32160722 -0.04082742 41.5703125 -0.04003906 C48.30208247 -0.03943904 55.03377211 -0.04997974 61.76552176 -0.06578273 C67.56536601 -0.07890751 73.36518416 -0.08422088 79.16504312 -0.08358365 C82.61996303 -0.08333006 86.07481152 -0.08610361 89.52971649 -0.0967617 C93.38963384 -0.10834512 97.24944317 -0.10366577 101.109375 -0.09765625 C102.23702271 -0.10327576 103.36467041 -0.10889526 104.52648926 -0.11468506 C116.8671909 -0.06608997 126.27893557 1.25371414 135.59863281 9.77807617 C144.15445895 18.81740108 143.27390218 30.35437537 143.24707031 41.95385742 C143.25163924 43.68823957 143.25694692 45.42261992 143.26295471 47.15699768 C143.27185636 50.7805215 143.26949636 54.40382456 143.25952148 58.02734375 C143.2480342 62.64828295 143.26825446 67.26845767 143.29743862 71.88929653 C143.31587066 75.46776591 143.31549431 79.04605442 143.3098011 82.6245594 C143.30964875 84.32724136 143.31562115 86.02993626 143.32809258 87.73257256 C143.40106878 99.32676662 142.88605868 109.68164476 134.59082031 118.61010742 C128.47518479 123.8924036 122.14961851 126.25832792 114.16073608 126.29243469 C113.00853577 126.29959 111.85633545 126.3067453 110.66921997 126.31411743 C109.40890961 126.31680634 108.14859924 126.31949524 106.85009766 126.32226562 C105.50614243 126.32853393 104.16218893 126.33518105 102.8182373 126.34217834 C98.40780841 126.36318234 93.99737933 126.37357918 89.58691406 126.38354492 C88.06535448 126.38759423 86.54379508 126.3917112 85.02223587 126.395895 C77.87069387 126.41494081 70.71916213 126.42917157 63.56759965 126.43750697 C55.3291245 126.44726917 47.09091875 126.47356444 38.85253847 126.51400787 C32.47443274 126.5442375 26.09640392 126.55898242 19.71822798 126.56228799 C15.91388139 126.5646312 12.10982278 126.57349556 8.30555344 126.59874916 C4.72182257 126.62215455 1.13856676 126.62621374 -2.44522095 126.61598778 C-4.37322073 126.61526206 -6.30119707 126.63426649 -8.22909546 126.65405273 C-16.74460705 126.60347607 -23.72404347 125.29326691 -30.77246094 120.32104492 C-38.56799082 112.2021197 -41.29792132 104.20117116 -41.33178711 93.01928711 C-41.33514572 92.32100296 -41.33850433 91.62271881 -41.34196472 90.90327454 C-41.35143256 88.60371094 -41.35341593 86.30422053 -41.35449219 84.00463867 C-41.35770836 82.39666718 -41.3610727 80.78869598 -41.36457825 79.1807251 C-41.3705596 75.81163862 -41.37241924 72.44257774 -41.37182617 69.07348633 C-41.37172477 64.77540232 -41.38535909 60.4774843 -41.40259838 56.17943954 C-41.41376845 52.85753641 -41.41574382 49.53567273 -41.41521645 46.21375275 C-41.41638971 44.63026611 -41.42077444 43.04677823 -41.42854881 41.46331024 C-41.48236566 29.36690614 -41.42747494 18.80206147 -33.18652344 9.14526367 C-23.47930523 0.09550646 -12.60799377 -0.00503086 0 0 Z M-22.62402344 22.08276367 C-25.04197532 26.82194936 -25.31727777 30.50211086 -25.34765625 35.82226562 C-25.35262115 36.48460205 -25.35758606 37.14693848 -25.36270142 37.8293457 C-25.37727048 40.01408947 -25.38411643 42.19876061 -25.38964844 44.38354492 C-25.39540448 45.90805563 -25.40116216 47.43256633 -25.40692139 48.95707703 C-25.41741661 52.15221492 -25.42326885 55.34732777 -25.42675781 58.54248047 C-25.4322376 62.62451471 -25.4562606 66.70621459 -25.48472977 70.78814411 C-25.50340995 73.93754526 -25.50856461 77.08686674 -25.51009369 80.23631859 C-25.51310893 81.74052952 -25.52109913 83.24473943 -25.53427887 84.74889565 C-25.55145193 86.85954409 -25.54943232 88.96938699 -25.54296875 91.08007812 C-25.54661438 92.27824661 -25.55026001 93.4764151 -25.55401611 94.71089172 C-24.92626966 100.57744355 -22.86440294 105.34448658 -18.18652344 109.14526367 C-15.12279983 110.16650487 -13.025816 110.27830085 -9.81694031 110.29243469 C-8.14513702 110.30316765 -8.14513702 110.30316765 -6.43955994 110.31411743 C-5.21612381 110.31680634 -3.99268768 110.31949524 -2.73217773 110.32226562 C-0.80013992 110.33212242 -0.80013992 110.33212242 1.17092896 110.34217834 C5.44369261 110.36320026 9.71645654 110.3735784 13.98925781 110.38354492 C15.46106675 110.38759306 16.93287551 110.39171 18.40468407 110.395895 C25.31915355 110.41494191 32.23361239 110.42917446 39.14810306 110.43750697 C47.12627959 110.44728047 55.10417877 110.47360476 63.08225757 110.51400787 C69.25136528 110.54417653 75.42039351 110.55897651 81.58957356 110.56228799 C85.2730857 110.56463748 88.95630135 110.57358442 92.63973427 110.59874916 C96.75031603 110.62637904 100.86027854 110.62219651 104.97094727 110.61523438 C106.1883107 110.62804443 107.40567413 110.64085449 108.65992737 110.65405273 C116.99777801 110.64065988 116.99777801 110.64065988 123.81347656 106.14526367 C126.76264249 101.69211796 127.19170027 98.13866071 127.20166016 92.8581543 C127.20691711 92.15490524 127.21217407 91.45165619 127.21759033 90.72709656 C127.23072017 88.41833838 127.22207772 86.11027802 127.21191406 83.80151367 C127.21393683 82.18778349 127.21684995 80.57405421 127.22061157 78.96032715 C127.22502541 75.58454655 127.21863436 72.20900471 127.20458984 68.83325195 C127.18749836 64.51571902 127.19734461 60.19874564 127.21530724 55.88123322 C127.22617062 52.55084043 127.22268706 49.22057934 127.21492386 45.8901825 C127.2129289 44.29863925 127.21535628 42.70708388 127.22236252 41.11555481 C127.23001938 38.8875074 127.21831486 36.66035421 127.20166016 34.43237305 C127.19807999 32.53424866 127.19807999 32.53424866 127.19442749 30.59777832 C126.64260744 25.59669639 125.03010478 22.32987536 121.43847656 18.83276367 C117.3010017 16.1729584 113.31684592 16.02055224 108.48258972 16.00482178 C106.89934654 15.99625656 106.89934654 15.99625656 105.28411865 15.98751831 C103.56264618 15.98584152 103.56264618 15.98584152 101.80639648 15.98413086 C100.5895668 15.97916595 99.37273712 15.97420105 98.11903381 15.96908569 C94.78830441 15.95700102 91.45763759 15.94952532 88.12689376 15.94507504 C86.04314834 15.94213755 83.95940834 15.9380315 81.87566566 15.93357086 C75.3477653 15.91990783 68.81987742 15.91023512 62.29196376 15.90636897 C54.7717574 15.90188985 47.25173294 15.88434382 39.73158187 15.85536838 C33.9080459 15.83371341 28.08456098 15.82366267 22.2609852 15.82232785 C18.7876445 15.82128263 15.31447508 15.81543528 11.84117699 15.79750824 C7.96363906 15.77788273 4.08632653 15.78233172 0.20874023 15.78881836 C-1.5036232 15.77499619 -1.5036232 15.77499619 -3.25057983 15.76089478 C-10.73864176 15.8000902 -17.53340291 15.94791329 -22.62402344 22.08276367 Z " fill="#000000" transform="translate(82.1865234375,162.854736328125)"/>
<path d="M0 0 C1.12577642 -0.00782324 2.25155285 -0.01564648 3.41144371 -0.02370679 C4.65354418 -0.01701463 5.89564465 -0.01032246 7.17538452 -0.00342751 C8.49073496 -0.00810748 9.8060854 -0.01278745 11.16129494 -0.01760924 C14.82010937 -0.03017241 18.47869008 -0.02392489 22.13750553 -0.01465058 C26.08030369 -0.00788208 30.02306075 -0.01833036 33.96585083 -0.02659035 C41.69285277 -0.03995346 49.41976745 -0.0370385 57.14677286 -0.02835242 C63.42481104 -0.0215864 69.7028247 -0.02065446 75.98086548 -0.02392387 C76.87325916 -0.02438357 77.76565284 -0.02484327 78.68508875 -0.0253169 C80.49778097 -0.02627605 82.31047317 -0.02724868 84.12316537 -0.02823468 C101.13406177 -0.03679612 118.14490974 -0.02694262 135.1557982 -0.01083358 C149.7624489 0.00257029 164.36902808 0.00024241 178.97567749 -0.01358986 C195.92432267 -0.02963237 212.87292536 -0.03597208 229.82157707 -0.02675307 C231.62772496 -0.02579739 233.43387285 -0.02485428 235.24002075 -0.02392387 C236.57312536 -0.02322963 236.57312536 -0.02322963 237.93316138 -0.02252137 C244.20607179 -0.01992749 250.47895532 -0.02431104 256.75186157 -0.03136253 C264.39299254 -0.03976299 272.03403102 -0.03752814 279.67515135 -0.0215203 C283.57625897 -0.0136179 287.47721219 -0.01057929 291.37831879 -0.02046776 C295.60084843 -0.03100935 299.8229858 -0.01845107 304.04550171 -0.00342751 C305.90865241 -0.01346575 305.90865241 -0.01346575 307.80944252 -0.02370679 C309.49810716 -0.01197193 309.49810716 -0.01197193 311.22088623 0 C312.68397752 0.00073059 312.68397752 0.00073059 314.17662621 0.00147593 C317.04465173 0.44461272 317.90980303 1.06489083 319.61044312 3.37752342 C320.6849984 6.90820507 320.89272246 8.68750725 319.48544312 12.12752342 C316.80854517 15.33980096 314.1135149 16.23417136 309.98182678 16.62822175 C308.55795403 16.62870881 308.55795403 16.62870881 307.10531616 16.6292057 C306.0046582 16.6344212 304.90400024 16.63963669 303.76998901 16.64501023 C301.96431458 16.63831807 301.96431458 16.63831807 300.12216187 16.63149071 C298.83918213 16.63461069 297.55620239 16.63773067 296.23434448 16.6409452 C292.67516455 16.6492987 289.1160918 16.64516542 285.55691147 16.63897276 C281.71773297 16.63445155 277.87857302 16.64143039 274.03939819 16.6469326 C266.51922761 16.65583178 258.99909691 16.65390226 251.47892475 16.64810732 C245.36781296 16.6435929 239.25671235 16.64297697 233.14559937 16.64515495 C232.276257 16.64546142 231.40691463 16.64576789 230.51122856 16.64608364 C228.74524688 16.64672308 226.97926521 16.64737151 225.21328354 16.64802882 C208.64869976 16.65373365 192.0841381 16.64717182 175.51955795 16.63642809 C161.30244609 16.62749244 147.08536689 16.62904444 132.86825562 16.63826561 C116.36345888 16.64896554 99.85868155 16.65318431 83.35388184 16.64704108 C81.59435018 16.64640398 79.83481853 16.64577523 78.07528687 16.64515495 C76.77665868 16.64469213 76.77665868 16.64469213 75.45179558 16.64421995 C69.34712128 16.64249218 63.24245926 16.64540989 57.13778687 16.65011406 C49.69953208 16.6557198 42.26131951 16.6542129 34.82306957 16.64355257 C31.02704227 16.63829173 27.23108539 16.63624613 23.43505859 16.64285088 C19.32288571 16.64989755 15.21089108 16.64149077 11.09872437 16.63149071 C9.89494141 16.63595215 8.69115845 16.64041359 7.45089722 16.64501023 C6.35023926 16.63979474 5.2495813 16.63457924 4.11557007 16.6292057 C2.69169731 16.62871865 2.69169731 16.62871865 1.23905945 16.62822175 C-2.89262867 16.23417136 -5.58765894 15.33980096 -8.26455688 12.12752342 C-9.67183623 8.68750725 -9.46411217 6.90820507 -8.38955688 3.37752342 C-5.96265791 0.07728034 -3.97806628 0.00198642 0 0 Z " fill="#000000" transform="translate(64.38955688476563,129.6224765777588)"/>
<path d="M0 0 C0.89827139 -0.00523668 1.79654278 -0.01047336 2.72203451 -0.01586872 C5.73828284 -0.03089565 8.75436192 -0.03157446 11.77064514 -0.03224182 C13.93058561 -0.03986139 16.09052335 -0.04828853 18.25045776 -0.0574646 C24.12227539 -0.07943398 29.99404094 -0.08821157 35.86589503 -0.09329104 C39.53241455 -0.09693114 43.19892035 -0.10316933 46.86543465 -0.11029243 C59.65090155 -0.13479351 72.43632783 -0.14784067 85.22181702 -0.15138245 C97.14955862 -0.15502023 109.07704329 -0.1849315 121.00470632 -0.22678703 C131.23833507 -0.26144232 141.47187846 -0.27693005 151.70556551 -0.27762848 C157.82084592 -0.27842279 163.93586461 -0.28723262 170.05108452 -0.31562614 C175.80083721 -0.34172566 181.55010965 -0.34405724 187.29989433 -0.3279705 C189.41187076 -0.32614966 191.52387431 -0.33290364 193.63579178 -0.34878922 C196.51582514 -0.36913443 199.39415977 -0.35876606 202.27416992 -0.34057617 C203.53224383 -0.36037612 203.53224383 -0.36037612 204.81573337 -0.38057607 C209.09689301 -0.31867615 210.72553176 -0.09578675 214.21941471 2.62507534 C216.20057678 5.27415466 216.20057678 5.27415466 216.82557678 8.27415466 C215.96568248 12.40164729 214.51767321 13.69207033 211.20057678 16.27415466 C208.20961201 16.9947027 205.30125221 16.94539711 202.23620605 16.90234375 C201.33229112 16.90943814 200.42837619 16.91653252 199.4970699 16.92384189 C196.46738676 16.94144788 193.43898209 16.92330366 190.40931702 16.90525818 C188.23775141 16.91039595 186.06618998 16.91767615 183.89463806 16.92694092 C177.99593676 16.9454799 172.09768655 16.93250071 166.19900393 16.91285062 C160.03090801 16.89648569 153.86284114 16.90527391 147.69473267 16.91036987 C137.33698811 16.91489289 126.97942402 16.89900711 116.62171936 16.87107849 C104.63880153 16.83901722 92.65636141 16.83904492 80.67340893 16.85629326 C69.15476991 16.87214394 57.63625043 16.86543469 46.11761665 16.84835625 C41.21136871 16.84147531 36.30521628 16.8425289 31.39896965 16.8499012 C25.62458804 16.8575491 19.85057783 16.84548653 14.07625961 16.81805229 C11.95420878 16.81115202 9.83212337 16.81108796 7.71007347 16.81826782 C4.81895254 16.82692433 1.92898785 16.8110709 -0.96203613 16.78881836 C-2.22929255 16.80117951 -2.22929255 16.80117951 -3.5221501 16.81379038 C-7.17235169 16.76173706 -9.33569272 16.62317531 -12.29707241 14.39433193 C-14.07244757 11.88885183 -14.64971784 10.34311485 -14.79942322 7.27415466 C-14.09369432 4.51539626 -13.59075172 2.85646659 -11.26735592 1.14675808 C-7.56264528 -0.16314116 -3.88240223 -0.01114973 0 0 Z " fill="#000000" transform="translate(55.79942321777344,335.72584533691406)"/>
<path d="M0 0 C1.27133987 -0.00657338 1.27133987 -0.00657338 2.56836337 -0.01327956 C5.42494686 -0.02669629 8.28149949 -0.03285283 11.1381073 -0.03897095 C13.17952617 -0.04686958 15.22094364 -0.05513838 17.26235962 -0.06375122 C23.98028729 -0.08999645 30.69822128 -0.10528019 37.41618347 -0.11953735 C39.72597953 -0.12489578 42.03577555 -0.13027329 44.34557152 -0.13566971 C53.95082591 -0.15730106 63.55607861 -0.17603933 73.1613512 -0.1872921 C86.94236161 -0.2035413 100.7230905 -0.23673992 114.50399476 -0.29369295 C124.18556185 -0.33234516 133.8670535 -0.35191913 143.54869574 -0.35721266 C149.33538512 -0.36087225 155.12177442 -0.37295831 160.90838051 -0.4053154 C166.35112645 -0.43531325 171.79338944 -0.44173738 177.23620033 -0.42993164 C179.23530372 -0.42971022 181.23442898 -0.43807165 183.23345566 -0.45558548 C185.96034112 -0.47817835 188.68546061 -0.47002857 191.41235352 -0.45410156 C192.20574231 -0.46798365 192.99913111 -0.48186574 193.816562 -0.49616849 C197.83942955 -0.43816854 199.68537625 -0.01212124 202.88785839 2.50440025 C204.89665222 5.15390015 204.89665222 5.15390015 205.52165222 8.15390015 C204.66526199 12.26457328 203.18376406 13.56876287 199.89665222 16.15390015 C196.88198683 16.6440842 194.43553197 16.8270654 191.42581177 16.78208923 C190.14956864 16.79273081 190.14956864 16.79273081 188.84754282 16.80358738 C185.99748586 16.82118507 183.14878945 16.80305384 180.29875183 16.78500366 C178.25526305 16.79014176 176.21177869 16.79742221 174.16830444 16.8066864 C168.61875565 16.82522121 163.06968648 16.81224894 157.52015758 16.7925961 C151.71641515 16.77622783 145.91270353 16.78501986 140.10894775 16.79011536 C130.36321843 16.79463798 120.61768093 16.77875501 110.87199402 16.75082397 C99.59802725 16.71876245 88.32440633 16.7187908 77.05041498 16.73603874 C66.21200779 16.75189074 55.37372762 16.74517937 44.535326 16.72810173 C39.91934906 16.72122176 35.30347364 16.72227338 30.68749809 16.72964668 C25.25455016 16.73729595 19.82199687 16.72522764 14.38911629 16.69779778 C12.39284563 16.69089895 10.39653822 16.69083193 8.40026855 16.69801331 C5.67990521 16.70667342 2.96076948 16.6908108 0.24050903 16.66856384 C-0.55374625 16.67680461 -1.34800153 16.68504538 -2.16632515 16.69353586 C-5.71406523 16.63980283 -7.70756108 16.45661471 -10.56624508 14.27017117 C-12.41410717 11.72604903 -13.02824446 10.30823948 -13.10334778 7.15390015 C-10.12621025 -0.21805945 -7.3777736 0.00458996 0 0 Z " fill="#000000" transform="translate(54.10334777832031,364.8460998535156)"/>
<path d="M0 0 C0.84518521 -0.00523668 1.69037042 -0.01047336 2.5611673 -0.01586872 C5.39776454 -0.03088974 8.23418173 -0.03157433 11.07081604 -0.03224182 C13.1026795 -0.03986179 15.13454007 -0.048289 17.16639709 -0.0574646 C22.68905264 -0.07943002 28.21165281 -0.08821103 33.73434711 -0.09329104 C37.18310439 -0.0969316 40.6318471 -0.10317002 44.08059883 -0.11029243 C56.10745508 -0.13479211 68.13426815 -0.14784037 80.16114807 -0.15138245 C91.37998628 -0.15502016 102.59855131 -0.18493122 113.81730598 -0.22678703 C123.44372164 -0.26144579 133.07004655 -0.27693011 142.6965242 -0.27762848 C148.44851761 -0.27842267 154.20023273 -0.28722696 159.95216179 -0.31562614 C165.36048115 -0.34173168 170.76828997 -0.34405396 176.17664337 -0.3279705 C178.16284101 -0.32615014 180.1490675 -0.33289943 182.13520241 -0.34878922 C184.84448792 -0.36914518 187.55196938 -0.35876042 190.26123047 -0.34057617 C191.04936408 -0.35377614 191.83749769 -0.36697611 192.64951414 -0.38057607 C196.65995247 -0.31898625 198.49104464 0.1143873 201.68209934 2.62507534 C203.69410706 5.27415466 203.69410706 5.27415466 204.31910706 8.27415466 C203.46271682 12.3848278 201.98121889 13.68901739 198.69410706 16.27415466 C195.67944166 16.76433872 193.2329868 16.94731992 190.2232666 16.90234375 C188.94702347 16.91298533 188.94702347 16.91298533 187.64499766 16.92384189 C184.79494069 16.94143959 181.94624429 16.92330836 179.09620667 16.90525818 C177.05271788 16.91039628 175.00923352 16.91767673 172.96575928 16.92694092 C167.41621048 16.94547573 161.86714132 16.93250346 156.31761241 16.91285062 C150.51386998 16.89648234 144.71015836 16.90527437 138.90640259 16.91036987 C129.16067326 16.91489249 119.41513577 16.89900952 109.66944885 16.87107849 C98.39548209 16.83901696 87.12186116 16.83904532 75.84786981 16.85629326 C65.00946262 16.87214526 54.17118246 16.86543389 43.33278084 16.84835625 C38.71680389 16.84147627 34.10092848 16.8425279 29.48495293 16.8499012 C24.052005 16.85755047 18.6194517 16.84548216 13.18657112 16.81805229 C11.19030046 16.81115347 9.19399305 16.81108644 7.19772339 16.81826782 C4.47736005 16.82692793 1.75822431 16.81106532 -0.96203613 16.78881836 C-1.75629141 16.79705913 -2.55054669 16.80529989 -3.36887032 16.81379038 C-6.91499086 16.76008187 -8.91180689 16.57446715 -11.7726965 14.39433193 C-13.58386254 11.88976504 -14.1552706 10.36191274 -14.30589294 7.27415466 C-13.59527852 4.49629828 -13.09916573 2.84637657 -10.74298 1.14675808 C-7.19679348 -0.1229604 -3.71982089 -0.01136651 0 0 Z " fill="#000000" transform="translate(55.30589294433594,306.72584533691406)"/>
<path d="M0 0 C1.60186157 -0.01891296 1.60186157 -0.01891296 3.23608398 -0.03820801 C4.95807007 -0.02606262 4.95807007 -0.02606262 6.71484375 -0.01367188 C7.89828369 -0.01749878 9.08172363 -0.02132568 10.30102539 -0.02526855 C12.80258027 -0.02798997 15.30416349 -0.02061291 17.80566406 -0.00390625 C21.63801424 0.01749809 25.46848949 -0.00370232 29.30078125 -0.02929688 C31.73047289 -0.02665364 34.16016337 -0.02152876 36.58984375 -0.01367188 C37.73783447 -0.0217688 38.8858252 -0.02986572 40.06860352 -0.03820801 C41.13651123 -0.02559937 42.20441895 -0.01299072 43.3046875 0 C44.7122229 0.00477356 44.7122229 0.00477356 46.14819336 0.00964355 C49.51150638 0.69184817 50.6589323 1.74133246 52.65234375 4.51757812 C53.16027832 7.43933105 53.16027832 7.43933105 53.16992188 10.875 C53.18253052 12.16313599 53.19513916 13.45127197 53.20812988 14.77844238 C53.20097006 16.18107653 53.19276608 17.58370569 53.18359375 18.98632812 C53.1862893 20.42834739 53.19017226 21.87036488 53.19519043 23.31237793 C53.20108264 26.33196345 53.19253223 29.35107511 53.17382812 32.37060547 C53.1510378 36.23794015 53.1641625 40.10416448 53.18811798 43.97145844 C53.20258401 46.94838807 53.19796649 49.92505518 53.18760681 52.9019928 C53.1849417 54.32772453 53.18820176 55.75348022 53.19752502 57.17918396 C53.20770173 59.17283665 53.18943564 61.16657309 53.16992188 63.16015625 C53.16514832 64.86081238 53.16514832 64.86081238 53.16027832 66.5958252 C52.52997988 70.22144237 51.63590868 71.39837207 48.65234375 73.51757812 C46.14819336 74.0255127 46.14819336 74.0255127 43.3046875 74.03515625 C41.70282593 74.05406921 41.70282593 74.05406921 40.06860352 74.07336426 C38.92061279 74.06526733 37.77262207 74.05717041 36.58984375 74.04882812 C34.81468384 74.05456848 34.81468384 74.05456848 33.00366211 74.0604248 C30.50210723 74.06314622 28.00052401 74.05576916 25.49902344 74.0390625 C21.66667326 74.01765816 17.83619801 74.03885857 14.00390625 74.06445312 C11.57421461 74.06180989 9.14452413 74.05668501 6.71484375 74.04882812 C4.99285767 74.06097351 4.99285767 74.06097351 3.23608398 74.07336426 C2.16817627 74.06075562 1.10026855 74.04814697 0 74.03515625 C-0.93835693 74.03197388 -1.87671387 74.0287915 -2.84350586 74.0255127 C-6.20681888 73.34330808 -7.3542448 72.29382379 -9.34765625 69.51757812 C-9.85559082 66.5958252 -9.85559082 66.5958252 -9.86523438 63.16015625 C-9.87784302 61.87202026 -9.89045166 60.58388428 -9.90344238 59.25671387 C-9.89628256 57.85407972 -9.88807858 56.45145056 -9.87890625 55.04882812 C-9.8816018 53.60680886 -9.88548476 52.16479137 -9.89050293 50.72277832 C-9.89639514 47.7031928 -9.88784473 44.68408114 -9.86914062 41.66455078 C-9.8463503 37.7972161 -9.859475 33.93099177 -9.88343048 30.06369781 C-9.89789651 27.08676818 -9.89327899 24.11010107 -9.88291931 21.13316345 C-9.8802542 19.70743172 -9.88351426 18.28167603 -9.89283752 16.85597229 C-9.90301423 14.8623196 -9.88474814 12.86858316 -9.86523438 10.875 C-9.862052 9.74122925 -9.85886963 8.6074585 -9.85559082 7.43933105 C-8.84482031 1.62515367 -5.57795375 0.01891725 0 0 Z M6.65234375 16.51757812 C6.65234375 30.04757813 6.65234375 43.57757813 6.65234375 57.51757812 C16.55234375 57.51757812 26.45234375 57.51757812 36.65234375 57.51757812 C36.65234375 43.98757812 36.65234375 30.45757812 36.65234375 16.51757812 C26.75234375 16.51757812 16.85234375 16.51757812 6.65234375 16.51757812 Z " fill="#000000" transform="translate(146.34765625,191.482421875)"/>
<path d="M0 0 C7.93322613 5.96687093 13.48552251 14.88438784 15.28515625 24.71875 C16.24853565 38.00075123 14.10514833 49.32726712 5.28515625 59.71875 C-3.53485352 68.26789575 -14.20915466 72.14031328 -26.35546875 71.9921875 C-38.32555181 71.01787841 -47.0403159 65.98353408 -55.02734375 57.28125 C-62.54771823 47.90682198 -64.45833035 37.71394651 -63.25 25.89453125 C-61.46547427 15.30460847 -55.8564212 6.73930055 -47.5625 0.03125 C-33.00208333 -10.31187897 -14.80297749 -9.57149733 0 0 Z M-43.3046875 18.515625 C-46.98163498 24.26021884 -48.4007444 29.7593345 -47.28125 36.5234375 C-45.43463142 43.68067642 -41.91417664 48.66582565 -35.71484375 52.71875 C-30.66380385 55.40116598 -25.43614105 56.69739296 -19.71484375 55.71875 C-12.32950264 53.30240517 -6.79368476 50.01758387 -2.90234375 43.15625 C0.09212743 36.68248849 0.58200407 30.84129835 -1.56640625 24.01171875 C-4.80102334 16.67331874 -9.51531219 12.6435353 -16.71484375 9.34375 C-27.2826449 7.14212476 -36.5441863 9.88519793 -43.3046875 18.515625 Z " fill="#000000" transform="translate(393.71484375,310.28125)"/>
<path d="M0 0 C8.38653563 6.12445715 15.14494236 13.54422059 17 24 C17.99050547 36.343222 16.10110458 46.3411745 8.05859375 55.9921875 C-0.08164054 63.93161904 -9.45765331 66.43615597 -20.53149414 66.35913086 C-30.77820927 66.09565965 -37.41710032 62.5936427 -44.80078125 55.4765625 C-51.29093259 48.16793737 -53.54646974 39.65205423 -54 30 C-53.35395114 19.90054237 -49.54961134 10.85890221 -42 4 C-29.51359938 -4.84622845 -13.91427466 -7.89958059 0 0 Z M-32.79296875 18.0234375 C-36.0122436 22.5044234 -38.10079126 26.35568966 -38 32 C-36.75487355 38.16066912 -34.48627684 42.61805518 -30 47 C-24.63018916 50.31328754 -20.30027796 51.36512349 -14.0625 50.375 C-8.13962298 48.65362848 -3.67359787 45.71598578 -0.5625 40.3125 C1.48728421 35.58017211 1.92687725 31.06961558 1 26 C-1.32092135 20.34090242 -5.09513565 16.51870703 -10 13 C-18.22641457 10.25786181 -26.90677733 11.38063324 -32.79296875 18.0234375 Z " fill="#000000" transform="translate(195,49)"/>
<path d="M0 0 C1.06863281 -0.02900391 2.13726562 -0.05800781 3.23828125 -0.08789062 C11.55896167 -0.15441513 16.88779891 1.29025906 23.1875 6.75 C27.97493494 12.35813807 29.73285058 16.77782152 29.58203125 24.16796875 C28.92671559 30.95604987 25.97588889 35.26598943 21.19140625 39.96484375 C19.24010853 41.41258077 17.75015313 41.90011078 15.375 42.3125 C15.88289063 42.9415625 16.39078125 43.570625 16.9140625 44.21875 C18.34712193 46.00068158 19.77250614 47.78880456 21.19140625 49.58203125 C22.52439517 51.24886354 23.88106152 52.89753621 25.27734375 54.51171875 C28.17806157 57.98575492 29.36112022 59.46583319 29.4375 64.125 C27.82236842 68.97039474 27.82236842 68.97039474 25.375 70.3125 C19.90864269 71.01783643 19.90864269 71.01783643 17.375 70.3125 C15.01171875 68.20703125 15.01171875 68.20703125 12.375 65.3125 C11.33758159 64.20150346 10.29980619 63.09084019 9.26171875 61.98046875 C8.19423728 60.82130175 7.12784271 59.66113295 6.0625 58.5 C5.51271484 57.90251953 4.96292969 57.30503906 4.39648438 56.68945312 C3.05503022 55.23135078 1.71487935 53.7720496 0.375 52.3125 C0.34921875 53.27671875 0.3234375 54.2409375 0.296875 55.234375 C0.24015625 56.49765625 0.1834375 57.7609375 0.125 59.0625 C0.05539063 60.94195312 0.05539063 60.94195312 -0.015625 62.859375 C-0.70587625 66.77079873 -1.43161866 68.01938042 -4.625 70.3125 C-6.625 70.87890625 -6.625 70.87890625 -8.625 70.875 C-9.615 70.90787109 -9.615 70.90787109 -10.625 70.94140625 C-13.75570645 69.95694582 -14.82346235 67.98662298 -16.625 65.3125 C-17.12620544 62.50500488 -17.12620544 62.50500488 -17.12670898 59.40820312 C-17.13608994 58.24349487 -17.14547089 57.07878662 -17.15513611 55.87878418 C-17.13828514 54.00519226 -17.13828514 54.00519226 -17.12109375 52.09375 C-17.12254898 50.80311646 -17.12400421 49.51248291 -17.12550354 48.18273926 C-17.12688516 45.45576491 -17.11437054 42.72931803 -17.09155273 40.00244141 C-17.0631678 36.51536739 -17.06590809 33.02916916 -17.07864285 29.54203033 C-17.0872891 26.2050126 -17.07214684 22.86825298 -17.05859375 19.53125 C-17.06152939 18.28218872 -17.06446503 17.03312744 -17.06748962 15.74621582 C-17.05480545 14.58150757 -17.04212128 13.41679932 -17.02905273 12.21679688 C-17.02364975 11.19485229 -17.01824677 10.17290771 -17.01268005 9.11999512 C-16.56214104 5.85728904 -15.55554352 3.95955117 -13.625 1.3125 C-9.57744482 -0.71127759 -4.44893992 0.03939439 0 0 Z M-0.625 16.3125 C-0.625 20.2725 -0.625 24.2325 -0.625 28.3125 C4.40135535 28.6568894 4.40135535 28.6568894 9.375 28.3125 C12.05318983 26.01392894 12.05318983 26.01392894 13.375 23.3125 C12.30098892 20.39732708 11.59689824 18.53439824 9.375 16.3125 C6.93487051 16.06962511 6.93487051 16.06962511 4.25 16.1875 C2.64125 16.22875 1.0325 16.27 -0.625 16.3125 Z " fill="#000000" transform="translate(108.625,44.6875)"/>
<path d="M0 0 C1.19170807 -0.00571014 2.38341614 -0.01142029 3.61123657 -0.01730347 C4.92040039 -0.01842133 6.22956421 -0.01953918 7.57839966 -0.02069092 C8.9697279 -0.02531974 10.36105487 -0.03034449 11.75238037 -0.03573608 C15.53340911 -0.04885501 19.3144201 -0.05530393 23.09546804 -0.05974674 C25.45758014 -0.06267799 27.81968738 -0.06678288 30.18179703 -0.07125092 C37.57200469 -0.08492386 44.96220126 -0.09459179 52.35242069 -0.09845281 C60.88408679 -0.10293468 69.41559278 -0.12048931 77.94721019 -0.1494534 C84.54177742 -0.17106458 91.13629957 -0.18115677 97.73090184 -0.18249393 C101.66974297 -0.18354227 105.60843354 -0.18945625 109.5472374 -0.20731354 C113.25235495 -0.2237848 116.9572086 -0.22595447 120.6623497 -0.21717453 C122.66883002 -0.21603632 124.67530155 -0.22976057 126.68173218 -0.243927 C127.8790799 -0.23835785 129.07642761 -0.2327887 130.31005859 -0.22705078 C131.34871 -0.22851734 132.38736141 -0.2299839 133.45748711 -0.2314949 C136.76060184 0.20346303 138.62483354 1.15442417 141.28201294 3.14044189 C142.95555745 6.48753092 143.50757424 8.23819671 142.59451294 11.89044189 C141.28201294 14.14044189 141.28201294 14.14044189 138.28201294 16.14044189 C135.62828922 16.3977108 135.62828922 16.3977108 132.36747742 16.40786743 C131.13225342 16.4163974 129.89702942 16.42492737 128.62437439 16.43371582 C127.2531737 16.43301678 125.88197311 16.43209371 124.51077271 16.43096924 C123.06855928 16.43695271 121.62634906 16.44375784 120.18414307 16.45132446 C116.26473856 16.46900905 112.34542135 16.47368084 108.42598081 16.47495604 C105.15550592 16.47685408 101.88505143 16.48421042 98.61458439 16.49130023 C90.89979422 16.50759073 83.18505075 16.51246853 75.47024536 16.51104736 C67.50797135 16.50984538 59.54596816 16.53095683 51.58376271 16.56253469 C44.75056225 16.58867073 37.9174504 16.5994158 31.08420032 16.59813654 C27.0017161 16.59762617 22.91947255 16.60335093 18.83703804 16.62449265 C14.99806562 16.64383057 11.15956458 16.64403046 7.32057571 16.62945938 C5.91125871 16.62736469 4.50191253 16.63211148 3.09264565 16.6441803 C1.169667 16.65958255 -0.75347172 16.64794842 -2.6764679 16.63491821 C-4.29113528 16.63655252 -4.29113528 16.63655252 -5.9384222 16.63821983 C-9.42367854 16.01406325 -10.60372728 14.93768379 -12.71798706 12.14044189 C-13.21798706 8.64044189 -13.21798706 8.64044189 -12.71798706 5.14044189 C-9.1260607 0.43377976 -5.66410463 0.01623359 0 0 Z " fill="#000000" transform="translate(255.71798706054688,191.85955810546875)"/>
<path d="M0 0 C1.00784546 -0.00630432 2.01569092 -0.01260864 3.05407715 -0.019104 C4.13644653 -0.01505554 5.21881592 -0.01100708 6.33398438 -0.00683594 C7.45083618 -0.00874939 8.56768799 -0.01066284 9.71838379 -0.01263428 C12.07869695 -0.01399471 14.43901764 -0.01030816 16.79931641 -0.00195312 C20.41390781 0.00874813 24.02800219 -0.00185348 27.64257812 -0.01464844 C29.93554797 -0.01332682 32.22851751 -0.01076437 34.52148438 -0.00683594 C35.60385376 -0.0108844 36.68622314 -0.01493286 37.8013916 -0.019104 C38.80923706 -0.01279968 39.81708252 -0.00649536 40.85546875 0 C41.74053101 0.00159119 42.62559326 0.00318237 43.53747559 0.00482178 C46.11980321 0.27919656 47.72778792 0.90119427 49.92773438 2.25878906 C52.57673295 5.78498836 52.26770213 9.89718621 52.29882812 14.12988281 C52.31237083 15.26889793 52.31237083 15.26889793 52.32618713 16.43092346 C52.3406657 18.03374299 52.34957042 19.6366213 52.35327148 21.23950195 C52.36517988 23.68509762 52.41439199 26.12817782 52.46484375 28.57324219 C52.47430761 30.1337768 52.48154282 31.69432684 52.48632812 33.25488281 C52.50586044 33.98211044 52.52539276 34.70933807 52.54551697 35.45860291 C52.51418402 39.00260056 51.98097356 41.17004 50.15283203 44.2175293 C45.19449356 47.35580848 40.52294459 46.97382238 34.76757812 46.92285156 C33.58555313 46.92763519 32.40352814 46.93241882 31.1856842 46.93734741 C28.69010078 46.94074608 26.19447282 46.9315462 23.69897461 46.91064453 C19.87513261 46.8838584 16.05422003 46.91040959 12.23046875 46.94238281 C9.80533205 46.93907918 7.38019718 46.93267392 4.95507812 46.92285156 C3.81022446 46.93297272 2.66537079 46.94309387 1.48582458 46.95352173 C-6.29926922 46.83827646 -6.29926922 46.83827646 -9.79516602 44.2175293 C-11.3996486 40.50031951 -11.6118245 37.23341635 -11.53320312 33.25488281 C-11.53228668 32.49458267 -11.53137024 31.73428253 -11.53042603 30.95094299 C-11.52440472 29.34979986 -11.50870284 27.74866721 -11.48388672 26.14770508 C-11.44732982 23.70058596 -11.44286799 21.2549812 -11.44335938 18.80761719 C-11.43352886 17.24835935 -11.42187214 15.68911173 -11.40820312 14.12988281 C-11.40486465 13.03600502 -11.40486465 13.03600502 -11.40145874 11.92002869 C-11.27590797 5.18691057 -11.27590797 5.18691057 -9.07226562 2.25878906 C-5.97532645 0.347806 -3.60976008 0.00648971 0 0 Z M4.92773438 16.25878906 C4.92773438 20.87878906 4.92773438 25.49878906 4.92773438 30.25878906 C15.15773438 30.25878906 25.38773438 30.25878906 35.92773438 30.25878906 C35.92773438 25.63878906 35.92773438 21.01878906 35.92773438 16.25878906 C25.69773437 16.25878906 15.46773437 16.25878906 4.92773438 16.25878906 Z " fill="#000000" transform="translate(78.072265625,218.7412109375)"/>
<path d="M0 0 C2.94443245 2.53334241 3.89451241 3.63738642 5 7.4375 C5 11 5 11 3.5625 13.9375 C0.62972353 16.2980274 -1.26477411 16.59471917 -5 16.375 C-7 16 -7 16 -9.875 14.5 C-14.8903925 12.0926116 -19.97462485 12.03643874 -25.28125 13.7265625 C-30.90403256 16.30716793 -33.9695348 19.44837189 -36.3125 25.25 C-37.40782709 31.22451143 -37.1066003 35.90536371 -34.25 41.3125 C-30.16833019 46.18782783 -26.65941877 48.69999696 -20.41015625 49.87890625 C-16.22833677 50.08901387 -12.68576157 48.92138078 -9 47 C-8.29875 46.278125 -7.5975 45.55625 -6.875 44.8125 C-5 43 -5 43 -1.5625 42.4375 C2 43 2 43 4.9375 45.125 C7 48 7 48 7.625 50.9375 C6.52964904 56.30471968 3.2318487 59.05645632 -0.9375 62.25 C-9.66556346 67.23746483 -20.25271799 67.31762126 -29.98046875 65.41796875 C-39.2071431 62.20550185 -46.11295367 55.36115107 -50.5625 46.8125 C-55.3201554 36.74460032 -54.74439846 27.53159185 -51.3203125 17.1875 C-47.80666999 8.70486009 -41.95251211 3.34533061 -34 -1 C-33.39800781 -1.3403125 -32.79601562 -1.680625 -32.17578125 -2.03125 C-22.44791212 -6.58921037 -9.20886918 -5.1354107 0 0 Z " fill="#000000" transform="translate(353,49)"/>
<path d="M0 0 C1.63582031 -0.03577148 1.63582031 -0.03577148 3.3046875 -0.07226562 C11.61530343 -0.05735423 18.61047466 1.56306532 24.81518555 7.38208008 C29.45676721 12.56853359 30.73390595 18.73707516 30.875 25.5625 C30.12712604 32.05030664 27.53508061 37.17101617 23.01953125 41.8671875 C16.21818643 47.2438426 8.28292186 48.21908392 -0.125 47.5625 C-0.10179688 48.65949219 -0.07859375 49.75648437 -0.0546875 50.88671875 C-0.03592079 52.341139 -0.01772156 53.79556664 0 55.25 C0.01675781 55.97123047 0.03351562 56.69246094 0.05078125 57.43554688 C0.08885307 61.60441118 -0.1581062 64.85566168 -2.125 68.5625 C-4.52846379 70.96596379 -5.26400195 70.88333747 -8.5625 70.9375 C-9.34496094 70.96585937 -10.12742187 70.99421875 -10.93359375 71.0234375 C-13.125 70.5625 -13.125 70.5625 -14.73670959 68.91381836 C-16.50185722 65.92422482 -16.51173471 63.94368581 -16.52905273 60.48046875 C-16.54173691 59.25239502 -16.55442108 58.02432129 -16.56748962 56.7590332 C-16.56543825 55.42268709 -16.56245028 54.08634213 -16.55859375 52.75 C-16.56315631 51.37524152 -16.5684621 50.00048531 -16.57447815 48.62573242 C-16.58340436 45.7474642 -16.58099152 42.86947353 -16.57104492 39.99121094 C-16.55954806 36.30550149 -16.57977856 32.62074912 -16.60896206 28.93516541 C-16.62732005 26.09722832 -16.62703266 23.25952087 -16.62132454 20.42153931 C-16.62117131 19.06278133 -16.62721699 17.70400781 -16.63961601 16.3453064 C-16.65451561 14.44510156 -16.6412242 12.54473906 -16.62670898 10.64453125 C-16.62654282 9.56405518 -16.62637665 8.4835791 -16.62620544 7.37036133 C-15.06418721 -1.38040277 -7.02684994 -0.06912989 0 0 Z M-0.125 16.5625 C-0.125 21.5125 -0.125 26.4625 -0.125 31.5625 C6.90280336 31.97846001 6.90280336 31.97846001 12.875 28.5625 C14.44723394 26.25714365 14.44723394 26.25714365 14.875 23.5625 C13.89452246 19.72972417 13.23616483 18.80327655 9.875 16.5625 C7.35915109 16.32099227 7.35915109 16.32099227 4.6875 16.4375 C3.099375 16.47875 1.51125 16.52 -0.125 16.5625 Z " fill="#000000" transform="translate(55.125,44.4375)"/>
<path d="M0 0 C1.24072266 -0.01224609 2.48144531 -0.02449219 3.75976562 -0.03710938 C5.54737305 -0.04000977 5.54737305 -0.04000977 7.37109375 -0.04296875 C8.46220459 -0.04707764 9.55331543 -0.05118652 10.67749023 -0.05541992 C13.54453256 0.18598713 15.16420907 0.64379236 17.5625 2.1875 C19.6440902 4.86383026 19.55837591 6.30503668 19.4375 9.75 C18.5625 13.1875 18.5625 13.1875 17.0859375 14.890625 C13.23344337 16.87054458 9.57277333 16.5048052 5.3125 16.375 C4.47203125 16.36146484 3.6315625 16.34792969 2.765625 16.33398438 C0.69764062 16.29873464 -1.37001271 16.2449302 -3.4375 16.1875 C-3.4375 19.8175 -3.4375 23.4475 -3.4375 27.1875 C-2.02597656 27.13529297 -2.02597656 27.13529297 -0.5859375 27.08203125 C1.28191406 27.04142578 1.28191406 27.04142578 3.1875 27 C4.41726563 26.96519531 5.64703125 26.93039063 6.9140625 26.89453125 C10.86103429 27.21147224 13.21617341 28.11237555 16.5625 30.1875 C18.10836876 33.27923752 17.85609521 35.78179552 17.5625 39.1875 C16.08984375 41.3984375 16.08984375 41.3984375 13.5625 43.1875 C10.62855397 43.66959856 7.7754831 43.56525715 4.8125 43.4375 C4.01972656 43.41945312 3.22695313 43.40140625 2.41015625 43.3828125 C0.46041652 43.33583082 -1.48869878 43.26409044 -3.4375 43.1875 C-3.4375 47.1475 -3.4375 51.1075 -3.4375 55.1875 C-1.44976562 55.10048828 -1.44976562 55.10048828 0.578125 55.01171875 C2.32288144 54.9648167 4.06767598 54.91931701 5.8125 54.875 C6.68519531 54.83310547 7.55789063 54.79121094 8.45703125 54.74804688 C14.92106625 54.62468743 14.92106625 54.62468743 18.17578125 57.48046875 C20.06176739 61.16212621 19.6555134 63.25265178 18.5625 67.1875 C17.43725586 68.87133789 17.43725586 68.87133789 15.5625 70.1875 C12.43969727 70.59155273 12.43969727 70.59155273 8.62890625 70.62109375 C7.95456039 70.6263356 7.28021454 70.63157745 6.58543396 70.63697815 C5.16072973 70.64339439 3.73597249 70.64206639 2.3112793 70.63354492 C0.13559178 70.6250414 -2.03746303 70.65378342 -4.21289062 70.68554688 C-5.59895755 70.68715927 -6.98502911 70.68658062 -8.37109375 70.68359375 C-10.2591272 70.68637329 -10.2591272 70.68637329 -12.18530273 70.68920898 C-16.10449185 70.0846047 -17.03007093 69.27305461 -19.4375 66.1875 C-19.93870544 63.41760254 -19.93870544 63.41760254 -19.93920898 60.19726562 C-19.94858994 58.98921265 -19.95797089 57.78115967 -19.96763611 56.53649902 C-19.95640213 55.23539185 -19.94516815 53.93428467 -19.93359375 52.59375 C-19.93374879 51.2414136 -19.93523853 49.88907675 -19.93800354 48.53674316 C-19.93938666 45.70544745 -19.92684517 42.87465884 -19.90405273 40.04345703 C-19.87566746 36.41838269 -19.87840613 32.79415066 -19.89114285 29.16901398 C-19.89810542 26.37738886 -19.89030431 23.58595766 -19.87788582 20.7943573 C-19.87118766 18.80908303 -19.87551031 16.82378149 -19.87998962 14.83850098 C-19.86730545 13.630448 -19.85462128 12.42239502 -19.84155273 11.17773438 C-19.83614975 10.11502319 -19.83074677 9.05231201 -19.82518005 7.95739746 C-19.38384218 4.80412547 -18.65688997 3.44142246 -16.4375 1.1875 C-11.15917974 -0.57194009 -5.52395495 0.00286067 0 0 Z " fill="#000000" transform="translate(277.4375,44.8125)"/>
<path d="M0 0 C0.87204071 -0.0071553 1.74408142 -0.01431061 2.64254761 -0.02168274 C3.60154968 -0.02437164 4.56055176 -0.02706055 5.5486145 -0.02983093 C6.55685272 -0.03640213 7.56509094 -0.04297333 8.60388184 -0.04974365 C11.95020617 -0.06950266 15.29648562 -0.08114395 18.64285278 -0.09111023 C19.78341251 -0.09518576 20.92397224 -0.09926128 22.09909439 -0.10346031 C28.13369822 -0.12433036 34.16827924 -0.13862907 40.20291138 -0.147995 C46.4466064 -0.15907222 52.68994628 -0.1934849 58.93351555 -0.23316669 C63.72555216 -0.25926513 68.51750321 -0.26768072 73.30960464 -0.27127647 C75.61176075 -0.27615856 77.91391263 -0.28781828 80.2159996 -0.30631447 C83.43393166 -0.33056549 86.65093226 -0.32976656 89.868927 -0.32279968 C91.30135742 -0.34201477 91.30135742 -0.34201477 92.76272583 -0.36161804 C99.18156162 -0.31083506 99.18156162 -0.31083506 102.43389893 1.95779419 C104.4881479 5.16055204 104.30348701 7.42459721 103.83816528 11.14717102 C102.07801398 14.33220672 101.33925612 14.98014074 97.83816528 16.14717102 C96.45347763 16.24334243 95.0646967 16.28627787 93.67669678 16.29434204 C92.82996902 16.30149734 91.98324127 16.30865265 91.1108551 16.31602478 C90.18507156 16.31871368 89.25928802 16.32140259 88.30545044 16.32417297 C86.83917458 16.33402977 86.83917458 16.33402977 85.34327698 16.34408569 C82.10459316 16.36381626 78.86595565 16.37547946 75.62722778 16.38545227 C74.52193096 16.3895278 73.41663414 16.39360332 72.27784348 16.39780235 C66.4301141 16.4186599 60.58240819 16.43296423 54.73464966 16.44233704 C48.68949418 16.45341377 42.64470555 16.48782943 36.59967995 16.52750874 C31.95515244 16.55362512 27.31071311 16.56202435 22.66611862 16.56561852 C20.43735648 16.57049565 18.20859856 16.58214151 15.97990799 16.60065651 C12.86286358 16.62494637 9.74677882 16.62410152 6.62966919 16.61714172 C5.70793411 16.62995178 4.78619904 16.64276184 3.83653259 16.65596008 C-0.32405133 16.62206586 -2.58429987 16.49674071 -6.21130371 14.3013916 C-8.72595172 11.52414455 -9.16183472 9.88034117 -9.16183472 6.14717102 C-6.89146821 1.28209993 -5.24010387 0.02946927 0 0 Z " fill="#000000" transform="translate(50.161834716796875,394.8528289794922)"/>
<path d="M0 0 C0.87022797 -0.0065712 1.74045593 -0.0131424 2.63705444 -0.01991272 C5.51861659 -0.03963381 8.4001267 -0.05130443 11.28173828 -0.0612793 C12.75764624 -0.06739259 12.75764624 -0.06739259 14.26337051 -0.07362938 C19.469198 -0.09448301 24.67499916 -0.10878895 29.88085938 -0.11816406 C35.26015966 -0.12923927 40.63904752 -0.16365408 46.01820183 -0.20333576 C50.15317562 -0.22946251 54.28805044 -0.23785229 58.42309952 -0.24144554 C60.40624915 -0.2463201 62.38939412 -0.25795875 64.37246323 -0.27648354 C67.14708073 -0.30079565 69.9206214 -0.29992475 72.6953125 -0.29296875 C73.51418945 -0.30577881 74.33306641 -0.31858887 75.17675781 -0.33178711 C79.10384678 -0.29589797 81.04276351 -0.09141809 84.46340942 2.02278137 C87.05064862 4.79064463 87.47705078 6.40446115 87.47705078 10.17700195 C85.346616 14.74221934 85.346616 14.74221934 82.47705078 16.17700195 C79.56930117 16.29129414 76.68496403 16.34486883 73.77636719 16.35400391 C72.87541824 16.3605751 71.9744693 16.3671463 71.04621887 16.37391663 C68.05701623 16.39366987 65.06786382 16.40531572 62.07861328 16.4152832 C60.54981096 16.42139649 60.54981096 16.42139649 58.99012375 16.42763329 C53.59742179 16.44850104 48.20474534 16.46280064 42.81201172 16.47216797 C37.23417325 16.48324378 31.65673248 16.51765528 26.07903481 16.55733967 C21.79655195 16.58344596 17.51416479 16.59185439 13.23160934 16.59544945 C11.17506596 16.60032963 9.11852724 16.61198408 7.06206131 16.63048744 C4.18655832 16.65475522 1.31209681 16.6539367 -1.56347656 16.64697266 C-2.8416198 16.66618774 -2.8416198 16.66618774 -4.14558411 16.68579102 C-7.94809322 16.65216078 -9.89828522 16.62358677 -13.05557251 14.36637878 C-15.19554703 11.17346275 -14.99251531 8.93353068 -14.52294922 5.17700195 C-11.23865938 -0.7659987 -6.11172187 0.01997001 0 0 Z " fill="#000000" transform="translate(257.52294921875,220.822998046875)"/>
<path d="M0 0 C0.80610718 -0.00524185 1.61221436 -0.0104837 2.44274902 -0.0158844 C4.14394989 -0.02229653 5.84519514 -0.02097804 7.54638672 -0.01245117 C10.14761274 -0.00393453 12.74664674 -0.0327215 15.34765625 -0.06445312 C17.00260351 -0.06606514 18.65755465 -0.0654876 20.3125 -0.0625 C21.08863647 -0.07373398 21.86477295 -0.08496796 22.66442871 -0.09654236 C26.24896902 -0.050324 28.25683435 0.12737378 31.14233398 2.33959961 C33.23372488 5.23233622 33.30378273 7.05245611 33.08984375 10.52734375 C32.65625 12.43359375 32.65625 12.43359375 30.78125 14.93359375 C27.52075644 16.49863066 25.99362803 16.5962743 22.4609375 16.52734375 C21.11104736 16.50704102 21.11104736 16.50704102 19.73388672 16.48632812 C18.70545654 16.46022461 18.70545654 16.46022461 17.65625 16.43359375 C17.66513245 17.05111511 17.67401489 17.66863647 17.6831665 18.30487061 C17.77161919 24.72854359 17.83197569 31.15204377 17.87597656 37.57617188 C17.89609936 39.97402981 17.92340059 42.37183863 17.95800781 44.76953125 C18.0064949 48.21496698 18.02921241 51.65975427 18.046875 55.10546875 C18.06752014 56.17851257 18.08816528 57.2515564 18.10943604 58.3571167 C18.10973816 59.35785217 18.11004028 60.35858765 18.11035156 61.38964844 C18.11923401 62.26901062 18.12811646 63.1483728 18.13726807 64.05438232 C17.49740955 67.21925032 16.11558561 68.41585175 13.65625 70.43359375 C11.65625 71 11.65625 71 9.65625 70.99609375 C8.66625 71.02896484 8.66625 71.02896484 7.65625 71.0625 C4.33089082 70.01683041 3.44819227 68.41586477 1.65625 65.43359375 C1.09904489 61.69494682 1.19116537 57.99914134 1.265625 54.2265625 C1.27128479 53.14603104 1.27694458 52.06549957 1.28277588 50.95222473 C1.30512957 47.50805986 1.35532609 44.0649431 1.40625 40.62109375 C1.42631621 38.28321817 1.44456677 35.94532625 1.4609375 33.60742188 C1.50499105 27.88245614 1.57189379 22.15809983 1.65625 16.43359375 C1.05296875 16.45679687 0.4496875 16.48 -0.171875 16.50390625 C-1.37070312 16.53097656 -1.37070312 16.53097656 -2.59375 16.55859375 C-3.77710938 16.59339844 -3.77710938 16.59339844 -4.984375 16.62890625 C-7.58562016 16.41357139 -9.13209026 15.79349832 -11.34375 14.43359375 C-13.4253402 11.75726349 -13.33962591 10.31605707 -13.21875 6.87109375 C-12.34375 3.43359375 -12.34375 3.43359375 -10.81054688 1.74584961 C-7.2835288 -0.13040951 -3.900464 -0.01475301 0 0 Z " fill="#000000" transform="translate(376.34375,44.56640625)"/>
<path d="M0 0 C4.65550318 0.73507945 5.78215503 1.76210864 8.5625 5.5625 C9.2859149 9.29044229 9.21561365 12.95512965 9.15625 16.7421875 C9.15629028 17.82831329 9.15633057 18.91443909 9.15637207 20.03347778 C9.15101706 22.32820426 9.13343536 24.62293028 9.10449219 26.91748047 C9.06273003 30.41821795 9.06341797 33.91702473 9.0703125 37.41796875 C9.05981621 39.65105496 9.04687575 41.88413129 9.03125 44.1171875 C9.03104858 45.15906219 9.03084717 46.20093689 9.03063965 47.27438354 C8.89875072 55.43355044 7.44608504 61.51081253 1.5625 67.5625 C-3.83598048 71.47639835 -10.02886183 71.48520968 -16.4375 70.5625 C-20.40553018 68.87795889 -23.40631102 66.59368898 -26.4375 63.5625 C-27.10789106 56.6351257 -27.10789106 56.6351257 -24.875 53.0625 C-21.47135196 50.96794736 -19.38599435 51.09403457 -15.4375 51.5625 C-13.04413838 52.44699649 -10.76663807 53.51341392 -8.4375 54.5625 C-8.43385437 53.94497864 -8.43020874 53.32745728 -8.42645264 52.69122314 C-8.3846597 46.26707247 -8.3153367 39.84363839 -8.22998047 33.41992188 C-8.20174535 31.0222083 -8.18054354 28.62440121 -8.16650391 26.2265625 C-8.14511028 22.78076203 -8.0984762 19.33608905 -8.046875 15.890625 C-8.04503204 14.28105927 -8.04503204 14.28105927 -8.04315186 12.63897705 C-8.02343323 11.63824158 -8.0037146 10.6375061 -7.98339844 9.60644531 C-7.97451599 8.72708313 -7.96563354 7.84772095 -7.95648193 6.94171143 C-6.96074138 2.37685639 -4.44073133 0.72666513 0 0 Z " fill="#000000" transform="translate(239.4375,44.4375)"/>
</svg>
