<?xml version="1.0" encoding="UTF-8"?>
<svg version="1.1" xmlns="http://www.w3.org/2000/svg" width="512" height="512">
<path d="M0 0 C0.62132812 0.33902344 1.24265625 0.67804688 1.8828125 1.02734375 C8.07332569 4.7925693 11.74570614 11.23711841 14 18 C14.09237765 19.37730568 14.13084894 20.75862871 14.13422108 22.13902473 C14.13867892 22.98591272 14.14313676 23.8328007 14.14772969 24.70535195 C14.14754533 25.63597478 14.14736097 26.56659762 14.14717102 27.52542114 C14.15084771 28.51393755 14.1545244 29.50245395 14.1583125 30.5209254 C14.16936654 33.84875364 14.17319611 37.17655067 14.17700195 40.50439453 C14.18326534 42.88429362 14.18991202 45.26419172 14.19691467 47.64408875 C14.21615487 54.79755613 14.22674529 61.9510241 14.23564246 69.10451013 C14.24002673 72.47447859 14.24539324 75.84444547 14.25063133 79.21441269 C14.26764417 90.4195657 14.28213739 101.62471773 14.28938007 112.82988167 C14.29128993 115.73749925 14.29321026 118.64511682 14.29516602 121.55273438 C14.29564976 122.27539647 14.2961335 122.99805856 14.2966319 123.7426195 C14.30492864 135.44404384 14.33025925 147.14536584 14.36274669 158.84674551 C14.39584018 170.86456787 14.41383095 182.88233828 14.41702431 194.90020645 C14.41918745 201.64604085 14.42790698 208.39172607 14.45348549 215.13751602 C14.47675478 221.48554301 14.48100379 227.83330167 14.47072411 234.18136024 C14.47022835 236.50934936 14.47656033 238.83735163 14.49028015 241.16530037 C14.50798595 244.34808035 14.50089857 247.52989606 14.48774719 250.712677 C14.49871644 251.62991551 14.50968568 252.54715401 14.52098733 253.49218762 C14.45806698 259.81681762 12.9302733 264.42491812 10 270 C9.59346191 270.85811279 9.18692383 271.71622559 8.76806641 272.6003418 C6.69971355 275.66142583 4.77815637 277.60137006 1.07214355 278.43218994 C-3.91881514 279.04961534 -8.89612514 279.00751005 -13.91601562 278.87817383 C-16.62567465 278.81248364 -19.32875951 278.81657082 -22.0390625 278.83007812 C-23.76827232 278.81401298 -25.49745071 278.79396694 -27.2265625 278.76953125 C-28.03187408 278.77024124 -28.83718567 278.77095123 -29.66690063 278.77168274 C-33.93294342 278.62845332 -35.53796067 278.3794382 -38.95385742 275.57421875 C-44.86187384 268.14143924 -48.45518792 261.56413826 -47.875 251.875 C-47.25573079 247.33137313 -46.14187173 244.46411499 -43 241 C-41.64553981 240.1336819 -40.26863375 239.30178203 -38.875 238.5 C-35.89816287 236.76397535 -35.0699949 236.12443537 -33.3125 233 C-32.7704283 229.97187956 -32.7704283 229.97187956 -34.0625 227.1875 C-36.42762103 224.51720206 -37.49807097 224.3104908 -41 224 C-47.78847906 226.06559109 -53.27331278 229.97187898 -57 236 C-59.9913241 241.88646415 -61.51369433 247.43487339 -62 254 C-74.14837671 253.7369446 -83.97325183 250.09183761 -92.80078125 241.60546875 C-101.48069695 231.32215832 -102.9560537 219.97875646 -102 207 C-99.74707557 197.39296991 -94.75319112 189.14717296 -87 183 C-81.82510826 179.99068796 -76.42043118 177.55155485 -70.875 175.3125 C-67.74552687 174.18871234 -67.74552687 174.18871234 -66 171 C-66.34445598 166.49149818 -66.34445598 166.49149818 -69 163 C-78.99657584 161.50051362 -87.36569868 166.66822245 -95.23828125 172.328125 C-99.3262524 175.59850192 -103.0041509 178.67699951 -106 183 C-113.81683255 182.18383072 -119.60865933 177.6141803 -124.90234375 171.97265625 C-126.40618364 170.04024112 -127.73090254 168.09318672 -129 166 C-129.37640625 165.38640625 -129.7528125 164.7728125 -130.140625 164.140625 C-136.89286662 151.94627819 -137.69822724 138.12200368 -133.96875 124.87890625 C-129.92556622 112.86347703 -122.49347534 102.79074026 -111 97 C-100.19894409 92.6929951 -91.69855376 91.35497082 -80.7734375 95.578125 C-76.79613007 97.61719529 -73.64701438 100.35727694 -70.38671875 103.390625 C-67.37386869 105.42220311 -65.56545713 105.41859649 -62 105 C-59.88329643 103.53958234 -59.88329643 103.53958234 -59 101 C-58.70391535 97.15089959 -59.21986884 94.94550459 -61.6953125 91.9453125 C-72.9781378 81.22865048 -86.05119391 78.86593694 -101 78 C-104.11394703 65.98906146 -103.47256716 55.83893396 -97.375 44.8125 C-91.23042712 35.30124468 -82.78159401 29.79577279 -72.0859375 26.390625 C-62.56312686 24.60732713 -53.65428583 25.82396366 -45 30 C-44.27039063 30.350625 -43.54078125 30.70125 -42.7890625 31.0625 C-37.85024548 33.78736456 -34.86545073 37.32729581 -31.640625 41.9140625 C-29.91906722 44.10290025 -28.39424999 45.57753383 -26 47 C-22.50099979 46.23021995 -20.543667 45.543667 -18 43 C-17.85834644 36.05897547 -21.36037282 31.89223846 -26 27 C-31.78697223 21.68971412 -37.99170588 17.5210753 -45 14 C-41.76328031 6.31279073 -37.18108541 0.69912008 -29.5 -2.9375 C-20.04785587 -5.93223873 -8.3926239 -5.27586108 0 0 Z " fill="#000000" transform="translate(193,101)"/>
<path d="M0 0 C0.7832666 0.09821045 1.5665332 0.1964209 2.37353516 0.29760742 C26.81549661 3.70144585 49.70629853 14.73437943 67.6875 31.5 C68.64398438 32.37527344 69.60046875 33.25054687 70.5859375 34.15234375 C93.11062157 55.635971 106.88105694 86.90437438 107.96484375 117.9609375 C108.70549225 153.79075007 98.39182749 184.14679725 73.6875 210.5 C71.12955883 213.05572352 68.53686966 215.57149648 65.93603516 218.08349609 C56.88733782 226.85584711 48.68383441 235.36175505 42.6875 246.5 C42.36152832 247.09941406 42.03555664 247.69882812 41.69970703 248.31640625 C34.58227742 261.71894237 31.17721517 275.56170896 28.6875 290.5 C13.5075 290.5 -1.6725 290.5 -17.3125 290.5 C-17.38030523 254.67700803 -17.43402133 218.85403471 -17.46569599 183.03099176 C-17.46944815 178.80272486 -17.47333112 174.5744581 -17.47729492 170.34619141 C-17.47808185 169.5044119 -17.47886878 168.6626324 -17.47967956 167.79534443 C-17.49273708 154.16147339 -17.51639282 140.52764026 -17.54395839 126.89379172 C-17.57200297 112.90647162 -17.58867425 98.91917139 -17.59476548 84.93182433 C-17.59888389 76.29936433 -17.6118963 67.66701149 -17.6362494 59.03458448 C-17.6520949 53.11675343 -17.65690305 47.19897786 -17.65300413 41.28112714 C-17.65108073 37.8657109 -17.65405014 34.45048204 -17.67011642 31.03509903 C-17.68499787 27.33236134 -17.68146901 23.63008558 -17.67326355 19.92733765 C-17.68200207 18.84756728 -17.6907406 17.76779691 -17.69974393 16.65530622 C-17.66702716 11.20941577 -17.4921732 7.15083104 -14.3125 2.5 C-9.59742955 -0.86889367 -5.52903934 -0.75581548 0 0 Z M7.6875 32.5 C6.47289265 35.57700528 6.43212117 36.90943647 7.75 39.95703125 C10.21217488 43.18863578 12.969698 44.32932173 16.625 45.8125 C38.64440885 55.42484448 53.56531198 71.50268496 62.6875 93.5 C65.98774798 102.20243962 67.30203534 110.77010718 67.74169922 120.0168457 C68.03330062 124.24772499 68.37092072 126.08617433 71.02734375 129.55859375 C73.62664707 131.85616284 73.62664707 131.85616284 77.3125 131.5 C81.20388963 130.38696714 81.20388963 130.38696714 83.6875 127.5 C86.5593457 105.53882702 77.19431934 82.19452302 64.625 64.625 C52.47700373 48.8980486 38.47094672 39.01777238 20.6875 30.5 C20.0275 30.17 19.3675 29.84 18.6875 29.5 C12.48815587 29.02995601 12.48815587 29.02995601 7.6875 32.5 Z " fill="#000000" transform="translate(258.3125,88.5)"/>
<path d="M0 0 C1.87125801 -0.00856522 1.87125801 -0.00856522 3.78031921 -0.01730347 C5.1499938 -0.01854859 6.51966849 -0.01967373 7.88934326 -0.02069092 C9.34196599 -0.02532387 10.79458751 -0.03034917 12.24720764 -0.03573608 C16.18334822 -0.04881592 20.11947178 -0.05529636 24.05563068 -0.05974674 C26.51847116 -0.06268453 28.98130705 -0.06679065 31.4441452 -0.07125092 C39.16058779 -0.08491404 46.87701983 -0.09458656 54.59347367 -0.09845281 C63.48106012 -0.10293117 72.36849259 -0.12047375 81.25603223 -0.1494534 C88.13948288 -0.1711142 95.02289034 -0.18115942 101.90637469 -0.18249393 C106.01132563 -0.18353878 110.11613159 -0.18937824 114.22104645 -0.20731354 C118.08544635 -0.22387061 121.94959347 -0.22591301 125.81401634 -0.21717453 C127.22565326 -0.21640823 128.6373042 -0.2206927 130.04890633 -0.23063278 C148.33025977 -0.35172977 148.33025977 -0.35172977 155.3805542 5.29669189 C156.30674561 6.45684814 156.30674561 6.45684814 157.25164795 7.64044189 C157.89231201 8.41387939 158.53297607 9.18731689 159.1930542 9.98419189 C162.88620397 15.30695606 162.25653814 21.9290124 161.68914795 28.14044189 C160.5610665 31.25804881 159.0644057 33.76518415 156.68914795 36.14044189 C154.39824701 36.23754704 152.10428254 36.26230777 149.81132507 36.26069641 C148.71973496 36.26197805 148.71973496 36.26197805 147.60609251 36.26328558 C145.14929682 36.26494253 142.69256829 36.25941552 140.23577881 36.25396729 C138.48195904 36.25368543 136.72813916 36.25384311 134.97431946 36.25440979 C130.19766126 36.25469785 125.42102795 36.24879984 120.64437556 36.24183583 C115.65820741 36.23560361 110.67203875 36.2349986 105.68586731 36.23381042 C96.23691501 36.23069672 86.78797421 36.22248281 77.33902699 36.21246094 C66.58467551 36.20130101 55.83032349 36.19578965 45.07596767 36.1907655 C22.94702133 36.18030022 0.81808536 36.16270003 -21.31085205 36.14044189 C-25.145478 29.58964251 -27.33297425 24.42699194 -25.83428955 16.67559814 C-23.74540162 9.77767702 -20.51195616 5.53634095 -14.28741455 1.93731689 C-9.71311048 0.09313106 -4.87308251 0.01341881 0 0 Z " fill="#000000" transform="translate(154.31085205078125,391.85955810546875)"/>
<path d="M0 0 C1.31632038 0.00553076 2.63264076 0.01106152 3.98884964 0.01675987 C4.72322321 0.01163332 5.45759678 0.00650677 6.2142241 0.00122488 C8.6763887 -0.00866307 11.13610288 0.02434321 13.59804153 0.05713463 C15.36215532 0.05882697 17.12627334 0.05787728 18.89038467 0.0544796 C23.68168661 0.05275596 28.47208984 0.0880654 33.26318264 0.12992334 C38.26930769 0.16739608 43.27545266 0.17095297 48.28169632 0.17807579 C57.76261657 0.19673481 67.24312239 0.24598618 76.72386003 0.30617273 C87.51691739 0.37320496 98.30999441 0.4062186 109.10320807 0.43634534 C131.30646993 0.49908426 153.50935855 0.60463987 175.71229935 0.73828697 C179.69143339 7.43652887 180.73156222 11.84688064 179.71229935 19.73828697 C177.98640489 25.85551053 174.08541318 30.40398313 168.71229935 33.73828697 C164.42035357 35.41103457 160.84451435 35.99183491 156.24959183 36.00571251 C154.32784889 36.01850746 154.32784889 36.01850746 152.36728287 36.0315609 C150.9598273 36.03086197 149.55237183 36.02993896 148.14491653 36.02881432 C146.6528833 36.03480309 145.16085316 36.04160944 143.66882706 36.04916954 C139.62523479 36.06680333 135.58172724 36.07152387 131.53810024 36.07280111 C129.00824929 36.07422499 126.4784197 36.07849912 123.94857407 36.08379555 C115.11247776 36.10228862 106.27644171 36.11046725 97.44032669 36.10889244 C89.22079191 36.1076919 81.00152008 36.12877876 72.7820518 36.16037977 C65.71175685 36.18658797 58.64154754 36.1972578 51.57120442 36.19598162 C47.35443702 36.19547323 43.1379033 36.20108768 38.92118454 36.22233772 C34.95165591 36.24179645 30.98258202 36.24179298 27.01303673 36.22730446 C25.56269855 36.22522453 24.11233134 36.22986826 22.66204262 36.24202538 C14.46202831 36.30626648 6.87716229 36.14779573 -0.28770065 31.73828697 C-5.2468044 26.82897342 -8.23554051 21.41034561 -8.3150444 14.28906822 C-7.95002155 8.02752236 -6.9967419 1.5711903 0 0 Z " fill="#000000" transform="translate(136.28770065307617,440.2617130279541)"/>
<path d="M0 0 C37.29 0 74.58 0 113 0 C111.78912898 7.26522609 109.47472973 12.15865371 103.70703125 16.875 C97.89553554 20.81885353 93.90244778 22.12408054 86.80981445 22.17700195 C85.7165258 22.18685875 85.7165258 22.18685875 84.60115051 22.19691467 C82.18852633 22.2166269 79.77596442 22.22830726 77.36328125 22.23828125 C76.53754293 22.24235678 75.71180462 22.2464323 74.86104393 22.25063133 C70.48817572 22.27148591 66.11533881 22.28578875 61.74243164 22.29516602 C57.23777167 22.30621306 52.73360803 22.3405947 48.22912312 22.38033772 C44.75541806 22.40655587 41.28183018 22.41486257 37.8080349 22.41844749 C36.14833421 22.42330214 34.48863835 22.43488404 32.82903481 22.45348549 C15.22760662 22.63846365 15.22760662 22.63846365 7.5390625 15.81640625 C6.90742188 15.07261719 6.27578125 14.32882812 5.625 13.5625 C4.97789062 12.82128906 4.33078125 12.08007812 3.6640625 11.31640625 C0.88672767 7.45030401 0 4.78017212 0 0 Z " fill="#000000" transform="translate(166,489)"/>
<path d="M0 0 C3.80531096 0.77396155 4.67145025 1.31054261 7.42016602 3.80737305 C8.12037872 4.44274994 8.82059143 5.07812683 9.54202271 5.73275757 C12.97200138 8.95772692 16.32836652 12.2481213 19.65234375 15.58203125 C20.37112198 16.29985275 21.08990021 17.01767426 21.83045959 17.75724792 C23.3332693 19.25938252 24.83483866 20.76275897 26.33520508 22.26733398 C28.6396476 24.57718196 30.94944389 26.88158091 33.25976562 29.18554688 C34.7242795 30.65072072 36.18848358 32.11620429 37.65234375 33.58203125 C38.34392075 34.27158401 39.03549774 34.96113678 39.74803162 35.67158508 C40.38281937 36.30952499 41.01760712 36.9474649 41.67163086 37.60473633 C42.23152206 38.16542313 42.79141327 38.72610992 43.36827087 39.30378723 C45.4766142 41.61507113 45.70145539 42.87327258 46.0625 46.0625 C45.6875 49.75 45.6875 49.75 43.625 52.6875 C40.6875 54.75 40.6875 54.75 37.375 55.5 C33.56968904 54.72603845 32.70354975 54.18945739 29.95483398 51.69262695 C29.25462128 51.05725006 28.55440857 50.42187317 27.83297729 49.76724243 C24.40299862 46.54227308 21.04663348 43.2518787 17.72265625 39.91796875 C17.00387802 39.20014725 16.28509979 38.48232574 15.54454041 37.74275208 C14.0417307 36.24061748 12.54016134 34.73724103 11.03979492 33.23266602 C8.7353524 30.92281804 6.42555611 28.61841909 4.11523438 26.31445312 C2.6507205 24.84927928 1.18651642 23.38379571 -0.27734375 21.91796875 C-0.96892075 21.22841599 -1.66049774 20.53886322 -2.37303162 19.82841492 C-3.00781937 19.19047501 -3.64260712 18.5525351 -4.29663086 17.89526367 C-4.85652206 17.33457687 -5.41641327 16.77389008 -5.99327087 16.19621277 C-8.1016142 13.88492887 -8.32645539 12.62672742 -8.6875 9.4375 C-8.3125 5.75 -8.3125 5.75 -6.25 2.8125 C-3.3125 0.75 -3.3125 0.75 0 0 Z " fill="#000000" transform="translate(349.3125,312.25)"/>
<path d="M0 0 C1.69206825 -0.00956978 1.69206825 -0.00956978 3.4183197 -0.01933289 C5.24647972 -0.02100212 5.24647972 -0.02100212 7.11157227 -0.02270508 C8.36301529 -0.02603348 9.61445831 -0.02936188 10.90382385 -0.03279114 C13.55261792 -0.03785784 16.2013094 -0.04063165 18.85009766 -0.04003906 C22.24073746 -0.03993743 25.6311679 -0.0535932 29.02175808 -0.07081127 C32.26002165 -0.08461636 35.49828325 -0.08402027 38.73657227 -0.08520508 C39.95332138 -0.09239059 41.1700705 -0.09957611 42.4236908 -0.10697937 C44.12048729 -0.10236443 44.12048729 -0.10236443 45.8515625 -0.09765625 C46.84623032 -0.09908127 47.84089813 -0.10050629 48.8657074 -0.10197449 C51.58526675 0.15419217 53.19700733 0.69106565 55.49047852 2.14526367 C57.79016415 5.36482356 58.0439649 8.270859 57.49047852 12.14526367 C55.84286213 14.73805765 55.11746701 15.7176348 52.49047852 17.14526367 C48.00452288 17.90047355 43.55749733 17.82141055 39.01782227 17.77416992 C37.702621 17.77658188 36.38741974 17.77899384 35.03236389 17.78147888 C32.25400754 17.78433166 29.47645969 17.76968705 26.69824219 17.7421875 C23.14138031 17.70807014 19.58596024 17.71413768 16.02902889 17.73285007 C12.629317 17.74597155 9.23002409 17.72770447 5.83032227 17.71166992 C4.55422592 17.71662979 3.27812958 17.72158966 1.96336365 17.72669983 C0.77855911 17.71086349 -0.40624542 17.69502716 -1.62695312 17.67871094 C-2.66888321 17.67251236 -3.71081329 17.66631378 -4.78431702 17.65992737 C-8.19004941 17.01674377 -9.3796976 15.82352078 -11.50952148 13.14526367 C-12.43818658 9.40135401 -12.01326801 6.08079294 -10.19702148 2.70776367 C-7.10845292 -0.15202204 -4.00599871 0.01536421 0 0 Z " fill="#000000" transform="translate(397.509521484375,204.854736328125)"/>
<path d="M0 0 C2.68465485 2.12480698 3.8712952 3.31849301 4.5146637 6.72520447 C4.52086227 7.76713455 4.52706085 8.80906464 4.53344727 9.88256836 C4.5492836 11.06737289 4.56511993 12.25217743 4.58143616 13.47288513 C4.57399635 15.38702965 4.57399635 15.38702965 4.56640625 17.33984375 C4.57260483 18.65408829 4.57880341 19.96833282 4.58518982 21.32240295 C4.59558902 24.10240204 4.59104098 26.88188913 4.57641602 29.66186523 C4.55923719 33.21767812 4.582711 36.77187369 4.61790562 40.32750607 C4.64520013 43.72754668 4.6351418 47.12719865 4.62890625 50.52734375 C4.64216446 51.80141586 4.65542267 53.07548798 4.66908264 54.38816833 C4.56549392 64.20687256 4.56549392 64.20687256 1.64819336 67.30688477 C-1.6280554 69.40154551 -3.18094367 69.71607306 -7 69 C-9.69990662 67.20006226 -11.5418865 65.916227 -13 63 C-13.10609779 61.20895998 -13.14879703 59.41401042 -13.16113281 57.61987305 C-13.17074036 56.49497971 -13.1803479 55.37008636 -13.19024658 54.21110535 C-13.1966214 52.37990898 -13.1966214 52.37990898 -13.203125 50.51171875 C-13.20882507 49.26123245 -13.21452515 48.01074615 -13.22039795 46.72236633 C-13.22985909 44.07179116 -13.23675003 41.42132952 -13.24023438 38.77075195 C-13.24571152 35.3812128 -13.26972237 31.9920769 -13.29820633 28.60266399 C-13.32136206 25.36404621 -13.32328471 22.12540772 -13.328125 18.88671875 C-13.3404718 17.67199387 -13.3528186 16.45726898 -13.36553955 15.20573425 C-13.36253845 14.07138443 -13.35953735 12.93703461 -13.35644531 11.76831055 C-13.36009094 10.77284714 -13.36373657 9.77738373 -13.36749268 8.75175476 C-12.9347444 5.51137149 -11.91329259 3.62867341 -10 1 C-6.87057535 -0.56471233 -3.38917777 -0.69701958 0 0 Z " fill="#000000" transform="translate(246,1)"/>
<path d="M0 0 C3.1259131 2.51597884 3.83132439 4.18402366 4.63720703 8.08251953 C3.63411783 14.24940431 -0.39784521 17.35873924 -4.7578125 21.6171875 C-5.6536203 22.51494904 -6.5494281 23.41271057 -7.47238159 24.337677 C-9.36959171 26.23088826 -11.27206918 28.11576397 -13.1875 29.99023438 C-15.63591556 32.38757557 -18.05677994 34.81063937 -20.47000313 37.24334526 C-22.78227397 39.56841692 -25.11436037 41.87336737 -27.4453125 44.1796875 C-28.31116974 45.04939178 -29.17702698 45.91909607 -30.06912231 46.81515503 C-31.29971878 48.01242722 -31.29971878 48.01242722 -32.55517578 49.23388672 C-33.27021271 49.93891327 -33.98524963 50.64393982 -34.72195435 51.37033081 C-37.5211362 53.37281062 -39.58708461 53.78007312 -43 54 C-46.52906067 52.39588152 -47.82772908 51.25840638 -50 48 C-50.5625 45.3125 -50.5625 45.3125 -50 42 C-48.6882019 40.2154541 -48.6882019 40.2154541 -46.95263672 38.30664062 C-46.31541687 37.60297363 -45.67819702 36.89930664 -45.02166748 36.17431641 C-39.57963729 30.32137786 -34.03917795 24.57284503 -28.43994141 18.87011719 C-26.89121096 17.28447332 -25.35151179 15.68996 -23.82080078 14.08691406 C-21.59198989 11.75478082 -19.33510031 9.45339506 -17.0703125 7.15625 C-16.39501495 6.43763794 -15.71971741 5.71902588 -15.0239563 4.9786377 C-10.39235672 0.36498813 -6.59551186 -1.54385836 0 0 Z " fill="#000000" transform="translate(391,61)"/>
</svg>
